<svg version="1.1" xmlns="http://www.w3.org/2000/svg" viewBox="0 0 546.1752453520976 436.93502398008866" width="1638.5257360562928" height="1310.8050719402659">
  <!-- svg-source:excalidraw -->
  
  <defs>
    <style class="style-fonts">
      @font-face {
        font-family: "Virgil";
        src: url("https://excalidraw.com/Virgil.woff2");
      }
      @font-face {
        font-family: "Cascadia";
        src: url("https://excalidraw.com/Cascadia.woff2");
      }
    </style>
  </defs>
  <g stroke-linecap="round"><g transform="translate(109.02521072067111 247.48809942931678) rotate(0 50.171090061406176 -0.2533893437445158)"><path d="M0 0 C16.72 -0.08, 83.62 -0.42, 100.34 -0.51 M0 0 C16.72 -0.08, 83.62 -0.42, 100.34 -0.51" stroke="#0fa5d700" stroke-width="2" fill="none"></path></g></g><mask></mask><g stroke-linecap="round"><g transform="translate(54.56556528211877 415.45839756205726) rotate(0 0.6188634619127242 -202.7232770642268)"><path d="M-0.38 0.01 C-0.19 -67.32, 0.62 -336.57, 0.49 -403.96 M1.61 -1.03 C1.75 -68.67, -0.12 -337.92, -0.19 -405.46" stroke="#8cd000" stroke-width="2" fill="none"></path></g><g transform="translate(54.56556528211877 415.45839756205726) rotate(0 0.6188634619127242 -202.7232770642268)"><path d="M-0.29 -404.68 L6.31 -390.22 L-4.8 -392.85 L1.66 -404.57" stroke="none" stroke-width="0" fill="#8cd000" fill-rule="evenodd"></path><path d="M-0.18 -404.84 C2.85 -403.52, 3.95 -397.45, 5.31 -390.49 M0.12 -405.93 C1.95 -401.15, 3.99 -395.23, 6.52 -391.46 M5.54 -391.53 C0.75 -391.26, -2.65 -392.24, -6.11 -392.29 M6.59 -391.62 C3.36 -391.36, -0.05 -391.79, -6.69 -392 M-6.17 -392.93 C-3.87 -395.96, -4.45 -398.45, -1.59 -406.07 M-6.26 -391.74 C-4.82 -396.06, -3.57 -399.48, -0.06 -405.26 M-0.19 -405.46 C-0.19 -405.46, -0.19 -405.46, -0.19 -405.46 M-0.19 -405.46 C-0.19 -405.46, -0.19 -405.46, -0.19 -405.46" stroke="#8cd000" stroke-width="2" fill="none"></path></g></g><mask></mask><g stroke-linecap="round"><g transform="translate(63.9540044138098 386.5570671966558) rotate(0 235.86525372463302 -0.5758780056040678)"><path d="M-0.49 -0.2 C78.28 0.05, 393.33 0.38, 472.22 0.35 M1.45 -1.34 C80.07 -1.33, 392.63 -1.72, 471.11 -1.32" stroke="#8cd000" stroke-width="2" fill="none"></path></g><g transform="translate(63.9540044138098 386.5570671966558) rotate(0 235.86525372463302 -0.5758780056040678)"><path d="M473.08 -2.62 L457.3 3.79 L456.67 -9.65 L471.38 -0.78" stroke="none" stroke-width="0" fill="#8cd000" fill-rule="evenodd"></path><path d="M470.86 -1.72 C468.48 0.74, 463.98 1.68, 456.87 3.61 M471.27 -1.3 C467.04 0.01, 462.13 3.45, 457.26 5.73 M458.4 4.48 C456.48 2.11, 457.02 -0.07, 457.68 -8.62 M457.47 5.24 C457.46 0.52, 457.96 -5.34, 458.11 -7.4 M457.15 -8.9 C461.44 -6.47, 466.95 -2.62, 471.88 -1.91 M456.99 -7.05 C460.34 -6.11, 463 -4.18, 471.72 -0.87 M471.11 -1.32 C471.11 -1.32, 471.11 -1.32, 471.11 -1.32 M471.11 -1.32 C471.11 -1.32, 471.11 -1.32, 471.11 -1.32" stroke="#8cd000" stroke-width="2" fill="none"></path></g></g><mask></mask><g transform="translate(83.49772097426103 389.1764103747661) rotate(0 17.76599884033203 17.5)"><text x="17.76599884033203" y="0" font-family="Virgil, Segoe UI Emoji" font-size="28px" fill="#8cd000" text-anchor="middle" style="white-space: pre;" direction="ltr" dominant-baseline="text-before-edge">KA</text></g><g transform="translate(189.98552178044474 389.83899566732873) rotate(0 19.908000946044922 17.5)"><text x="19.908000946044922" y="0" font-family="Virgil, Segoe UI Emoji" font-size="28px" fill="#8cd000" text-anchor="middle" style="white-space: pre;" direction="ltr" dominant-baseline="text-before-edge">MA</text></g><g transform="translate(318.73700916396547 391.4308137896661) rotate(0 18.871999740600586 17.5)"><text x="18.871999740600586" y="0" font-family="Virgil, Segoe UI Emoji" font-size="28px" fill="#8cd000" text-anchor="middle" style="white-space: pre;" direction="ltr" dominant-baseline="text-before-edge">HZ</text></g><g transform="translate(434.15830103244525 391.93502398008866) rotate(0 16.898000717163086 17.5)"><text x="16.898000717163086" y="0" font-family="Virgil, Segoe UI Emoji" font-size="28px" fill="#8cd000" text-anchor="middle" style="white-space: pre;" direction="ltr" dominant-baseline="text-before-edge">HA</text></g><g transform="translate(12.14200210571289 338.5624221277045) rotate(0 17.76599884033203 17.5)"><text x="17.76599884033203" y="0" font-family="Virgil, Segoe UI Emoji" font-size="28px" fill="#8cd000" text-anchor="middle" style="white-space: pre;" direction="ltr" dominant-baseline="text-before-edge">KA</text></g><g transform="translate(10 229.14881080604107) rotate(0 19.908000946044922 17.5)"><text x="19.908000946044922" y="0" font-family="Virgil, Segoe UI Emoji" font-size="28px" fill="#8cd000" text-anchor="middle" style="white-space: pre;" direction="ltr" dominant-baseline="text-before-edge">MA</text></g><g transform="translate(11.036001205444336 129.31519310240344) rotate(0 18.871999740600586 17.5)"><text x="18.871999740600586" y="0" font-family="Virgil, Segoe UI Emoji" font-size="28px" fill="#8cd000" text-anchor="middle" style="white-space: pre;" direction="ltr" dominant-baseline="text-before-edge">HZ</text></g><g transform="translate(13.010000228881836 45.61630149228279) rotate(0 16.898000717163086 17.5)"><text x="16.898000717163086" y="0" font-family="Virgil, Segoe UI Emoji" font-size="28px" fill="#8cd000" text-anchor="middle" style="white-space: pre;" direction="ltr" dominant-baseline="text-before-edge">HA</text></g><g stroke-linecap="round" transform="translate(103.33375724428015 242.3451101900945) rotate(0 4.789996809012791 4.789996809012791)"><path d="M7.23 3.07 L9.53 6 L5.52 8.44 L-0.31 5.09 L4.76 -0.07 L5.8 1.63" stroke="none" stroke-width="0" fill="#8cd000"></path><path d="M6.25 1.25 M6.25 1.25 C6.87 2.11, 7.17 2.73, 8.33 3.75 M6.25 1.25 C6.63 1.71, 7.18 2.36, 8.33 3.75 M8.33 3.75 C8.78 3.78, 9.15 4.26, 8.33 6.25 M8.33 3.75 C7.61 3.35, 10.37 5.31, 8.33 6.25 M8.33 6.25 C7.53 6.91, 6.95 7.56, 6.25 8.33 M8.33 6.25 C7.42 6.96, 6.77 7.73, 6.25 8.33 M6.25 8.33 C3.48 8.76, 5.42 9.28, 3.75 8.33 M6.25 8.33 C5.12 10.53, 6.76 9.24, 3.75 8.33 M3.75 8.33 C3.12 7.73, 2.8 7.48, 1.25 6.25 M3.75 8.33 C2.9 7.69, 2.34 7.03, 1.25 6.25 M1.25 6.25 C-1.52 4.63, -1.33 6.54, 1.25 3.75 M1.25 6.25 C-0.43 4.56, -0.35 4.85, 1.25 3.75 M1.25 3.75 C2.32 3.13, 2.99 2.39, 3.75 1.25 M1.25 3.75 C1.77 3, 2.55 2.62, 3.75 1.25 M3.75 1.25 C3.95 -1.04, 3.84 -0.72, 6.25 1.25 M3.75 1.25 C5.84 -0.54, 3.85 -0.1, 6.25 1.25" stroke="#8cd000" stroke-width="2" fill="none"></path></g><g stroke-linecap="round" transform="translate(335.83906058523144 64.7218012617817) rotate(0 4.789996809012791 4.789996809012791)"><path d="M7.25 1.91 L10.12 4.1 L5.76 7.56 L1.35 5.55 L5.82 -0.92 L5.94 0.38" stroke="none" stroke-width="0" fill="#8cd000"></path><path d="M6.25 1.25 M6.25 1.25 C6.99 2.21, 7.61 3.23, 8.33 3.75 M6.25 1.25 C6.76 1.85, 7.25 2.51, 8.33 3.75 M8.33 3.75 C9.46 6.49, 10.18 6.82, 8.33 6.25 M8.33 3.75 C8.3 3.67, 7.59 4.07, 8.33 6.25 M8.33 6.25 C8.1 6.51, 7.07 7.52, 6.25 8.33 M8.33 6.25 C7.65 6.85, 6.98 7.56, 6.25 8.33 M6.25 8.33 C3.23 8.58, 5.53 9.64, 3.75 8.33 M6.25 8.33 C3.3 7.99, 3.74 7.69, 3.75 8.33 M3.75 8.33 C3.19 7.54, 1.98 6.94, 1.25 6.25 M3.75 8.33 C3.11 7.97, 2.47 7.28, 1.25 6.25 M1.25 6.25 C-1.72 4.49, 0.41 5.29, 1.25 3.75 M1.25 6.25 C1.72 4.62, -1.05 6.93, 1.25 3.75 M1.25 3.75 C2.07 3.05, 2.68 2.63, 3.75 1.25 M1.25 3.75 C2.15 2.73, 3.05 2.14, 3.75 1.25 M3.75 1.25 C4.64 1.65, 6.14 0.4, 6.25 1.25 M3.75 1.25 C5.64 1.72, 4.97 -1.51, 6.25 1.25" stroke="#8cd000" stroke-width="2" fill="none"></path></g><g stroke-linecap="round" transform="translate(204.2615665224921 242.34511019009494) rotate(0 4.789996809012791 4.789996809012791)"><path d="M5.42 0.21 L7.3 5.01 L3.18 9.76 L-1.34 4.65 L5.49 -0.57 L4.33 2.19" stroke="none" stroke-width="0" fill="#8cd000"></path><path d="M6.25 1.25 M6.25 1.25 C6.79 1.88, 6.99 2.47, 8.33 3.75 M6.25 1.25 C6.99 2.3, 7.76 3.25, 8.33 3.75 M8.33 3.75 C10.92 6.35, 11.52 5.52, 8.33 6.25 M8.33 3.75 C9.69 3.52, 9.53 4.73, 8.33 6.25 M8.33 6.25 C7.73 7.11, 7.07 7.59, 6.25 8.33 M8.33 6.25 C7.63 6.91, 6.67 7.94, 6.25 8.33 M6.25 8.33 C6.08 8.72, 3.06 7.67, 3.75 8.33 M6.25 8.33 C3.07 8.96, 6.72 11.72, 3.75 8.33 M3.75 8.33 C3.31 8.18, 2.36 7.45, 1.25 6.25 M3.75 8.33 C3.1 7.71, 2.26 7.04, 1.25 6.25 M1.25 6.25 C0.91 3.38, -0.49 5.61, 1.25 3.75 M1.25 6.25 C0.23 6.92, -0.66 3.43, 1.25 3.75 M1.25 3.75 C1.9 2.93, 2.53 2.66, 3.75 1.25 M1.25 3.75 C2.08 2.99, 2.57 2.25, 3.75 1.25 M3.75 1.25 C3.69 1.59, 3.27 -1.47, 6.25 1.25 M3.75 1.25 C5.3 -1.99, 6.43 -2.25, 6.25 1.25" stroke="#8cd000" stroke-width="2" fill="none"></path></g><g stroke-linecap="round"><g transform="translate(108.70715179478611 247.7185047406) rotate(0 115.51275281552512 -89.125850511615)"><path d="M0 0 C38.5 -29.71, 192.52 -148.54, 231.03 -178.25 M0 0 C38.5 -29.71, 192.52 -148.54, 231.03 -178.25" stroke="#8cd000" stroke-width="2" fill="none"></path></g></g><mask></mask><g stroke-linecap="round"><g transform="translate(208.19300393849244 249.5117303620783) rotate(0 65.9419905663342 -89.91898270760203)"><path d="M0 0 C21.98 -29.97, 109.9 -149.86, 131.88 -179.84 M0 0 C21.98 -29.97, 109.9 -149.86, 131.88 -179.84" stroke="#8cd000" stroke-width="2" fill="none"></path></g></g><mask></mask><g transform="translate(395.9253152995825 233.5109984640693) rotate(0 2.0958097688539965 4.308053413755488)" stroke="none"><path fill="#8cd000" d="M 1.30,0.16 Q 1.30,0.16 1.16,1.23 1.03,2.30 0.81,3.64 0.59,4.98 0.39,6.10 0.19,7.21 2.78,7.26 5.36,7.30 5.57,7.33 5.78,7.37 5.97,7.47 6.15,7.57 6.30,7.73 6.44,7.88 6.53,8.08 6.62,8.27 6.64,8.48 6.66,8.69 6.61,8.90 6.57,9.11 6.46,9.29 6.35,9.47 6.18,9.61 6.02,9.74 5.82,9.82 5.62,9.90 5.41,9.91 5.20,9.92 4.99,9.86 4.79,9.80 4.61,9.68 4.44,9.56 4.31,9.39 4.19,9.22 4.12,9.01 4.05,8.81 4.05,8.60 4.06,8.39 4.13,8.19 4.20,7.99 4.33,7.82 4.46,7.65 4.63,7.53 4.81,7.41 5.01,7.36 5.22,7.30 5.43,7.32 5.64,7.33 5.84,7.41 6.04,7.49 6.20,7.63 6.36,7.77 6.47,7.95 6.57,8.14 6.62,8.34 6.66,8.55 6.64,8.76 6.61,8.97 6.52,9.16 6.43,9.36 6.28,9.51 6.14,9.66 5.95,9.76 5.76,9.86 5.55,9.89 5.34,9.92 5.34,9.92 5.34,9.92 3.25,9.78 1.15,9.63 0.00,9.51 -1.15,9.39 -1.79,8.33 -2.44,7.27 -2.20,6.04 -1.95,4.81 -1.76,3.39 -1.57,1.97 -1.43,0.90 -1.30,-0.16 -1.26,-0.31 -1.22,-0.47 -1.15,-0.60 -1.07,-0.74 -0.97,-0.86 -0.86,-0.98 -0.73,-1.07 -0.60,-1.16 -0.45,-1.22 -0.30,-1.27 -0.15,-1.29 0.00,-1.31 0.16,-1.29 0.31,-1.27 0.46,-1.21 0.61,-1.16 0.74,-1.07 0.87,-0.97 0.97,-0.86 1.08,-0.74 1.15,-0.60 1.22,-0.46 1.26,-0.30 1.30,-0.15 1.30,0.00 1.30,0.16 1.30,0.16 L 1.30,0.16 Z"></path></g><g transform="translate(388.939282736736 233.97673396825928) rotate(0 7.218900314941493 -1.164338760474493)" stroke="none"><path fill="#8cd000" d="M -0.65,-1.14 Q -0.65,-1.14 -0.18,-1.40 0.28,-1.67 1.55,-2.19 2.83,-2.70 4.04,-3.02 5.26,-3.34 6.57,-3.18 7.89,-3.02 9.02,-2.36 10.14,-1.70 12.17,-1.61 14.20,-1.52 14.41,-1.52 14.63,-1.53 14.83,-1.46 15.03,-1.40 15.20,-1.27 15.37,-1.15 15.49,-0.97 15.62,-0.80 15.68,-0.59 15.74,-0.39 15.73,-0.18 15.72,0.02 15.64,0.22 15.57,0.42 15.43,0.59 15.30,0.75 15.12,0.86 14.94,0.97 14.73,1.02 14.52,1.07 14.31,1.05 14.10,1.03 13.91,0.95 13.71,0.86 13.56,0.72 13.40,0.57 13.30,0.39 13.19,0.20 13.16,-0.00 13.12,-0.21 13.15,-0.42 13.18,-0.63 13.28,-0.82 13.38,-1.01 13.53,-1.16 13.68,-1.30 13.87,-1.40 14.06,-1.49 14.27,-1.51 14.48,-1.54 14.69,-1.50 14.90,-1.46 15.08,-1.35 15.27,-1.24 15.41,-1.08 15.55,-0.92 15.63,-0.73 15.71,-0.53 15.73,-0.32 15.74,-0.11 15.69,0.09 15.63,0.30 15.52,0.47 15.40,0.65 15.23,0.78 15.07,0.91 14.86,0.98 14.66,1.05 14.66,1.05 14.67,1.05 12.40,1.05 10.13,1.04 9.14,0.41 8.16,-0.21 7.12,-0.53 6.09,-0.85 4.90,-0.54 3.71,-0.23 2.64,0.18 1.58,0.60 1.12,0.87 0.65,1.14 0.50,1.20 0.35,1.26 0.20,1.28 0.04,1.31 -0.11,1.29 -0.26,1.28 -0.41,1.23 -0.56,1.18 -0.70,1.09 -0.83,1.01 -0.94,0.89 -1.05,0.78 -1.13,0.64 -1.21,0.50 -1.25,0.35 -1.29,0.20 -1.30,0.04 -1.30,-0.11 -1.27,-0.26 -1.24,-0.42 -1.17,-0.56 -1.10,-0.70 -1.00,-0.82 -0.90,-0.95 -0.77,-1.04 -0.65,-1.14 -0.65,-1.14 L -0.65,-1.14 Z"></path></g><g transform="translate(401.357574393754 236.30541148920804) rotate(0 4.3481864938141825 8.285416323532672)"><text x="4.348186493814248" y="0" font-family="Virgil, Segoe UI Emoji" font-size="13.256666117652252px" fill="#8cd000" text-anchor="middle" style="white-space: pre;" direction="ltr" dominant-baseline="text-before-edge">a</text></g><g transform="translate(413.14116881620066 225.25400073147182) rotate(0 13.22065306560944 14.794822581760627)"><text x="13.220653065609422" y="0" font-family="Virgil, Segoe UI Emoji" font-size="23.671716130817007px" fill="#8cd000" text-anchor="middle" style="white-space: pre;" direction="ltr" dominant-baseline="text-before-edge">= </text></g><g stroke-linecap="round"><g transform="translate(433.20582230792706 238.04211216314945) rotate(0 14.665842268927236 0.2105465972510956)"><path d="M0.54 -0.77 C5.2 -0.97, 22.92 -1.08, 27.86 -0.97 M-0.63 1.43 C4.38 1.39, 24.86 0.93, 29.97 0.32" stroke="#8cd000" stroke-width="2" fill="none"></path></g></g><mask></mask><g transform="translate(437.2569291438049 215.41699193787406) rotate(0 7.831999778747559 13.811121702400783)"><text x="7.831999778747559" y="0" font-family="Virgil, Segoe UI Emoji" font-size="22.097794723841254px" fill="#8cd000" text-anchor="middle" style="white-space: pre;" direction="ltr" dominant-baseline="text-before-edge">2</text></g><g transform="translate(437.5192326847682 240.4620549701848) rotate(0 7.491000175476074 13.811121702400783)"><text x="7.491000175476074" y="0" font-family="Virgil, Segoe UI Emoji" font-size="22.097794723841254px" fill="#8cd000" text-anchor="middle" style="white-space: pre;" direction="ltr" dominant-baseline="text-before-edge">3</text></g><g transform="translate(395.70821376454205 169.96656068848358) rotate(0 2.0958097688539965 4.308053413755488)" stroke="none"><path fill="#8cd00000" d="M 1.30,0.16 Q 1.30,0.16 1.16,1.23 1.03,2.30 0.81,3.64 0.59,4.98 0.39,6.10 0.19,7.21 2.74,7.26 5.29,7.30 5.50,7.33 5.71,7.37 5.89,7.47 6.08,7.57 6.23,7.73 6.37,7.88 6.46,8.08 6.55,8.27 6.57,8.48 6.59,8.69 6.54,8.90 6.49,9.11 6.38,9.29 6.27,9.47 6.11,9.61 5.95,9.74 5.75,9.82 5.55,9.90 5.34,9.91 5.13,9.91 4.92,9.86 4.72,9.80 4.54,9.68 4.37,9.56 4.24,9.39 4.11,9.22 4.05,9.01 3.98,8.81 3.98,8.60 3.98,8.39 4.05,8.19 4.12,7.99 4.25,7.82 4.38,7.65 4.56,7.53 4.74,7.41 4.94,7.36 5.15,7.30 5.36,7.32 5.57,7.33 5.77,7.41 5.96,7.49 6.12,7.63 6.29,7.77 6.39,7.95 6.50,8.13 6.55,8.34 6.59,8.55 6.57,8.76 6.54,8.97 6.45,9.16 6.36,9.36 6.21,9.51 6.06,9.66 5.88,9.76 5.69,9.86 5.48,9.89 5.27,9.92 5.27,9.92 5.27,9.92 3.21,9.78 1.15,9.63 0.00,9.51 -1.15,9.39 -1.79,8.33 -2.44,7.27 -2.20,6.04 -1.95,4.81 -1.76,3.39 -1.57,1.97 -1.43,0.90 -1.30,-0.16 -1.26,-0.31 -1.22,-0.47 -1.15,-0.60 -1.07,-0.74 -0.97,-0.86 -0.86,-0.98 -0.73,-1.07 -0.60,-1.16 -0.45,-1.22 -0.30,-1.27 -0.15,-1.29 0.00,-1.31 0.16,-1.29 0.31,-1.27 0.46,-1.21 0.61,-1.16 0.74,-1.07 0.87,-0.97 0.97,-0.86 1.08,-0.74 1.15,-0.60 1.22,-0.46 1.26,-0.30 1.30,-0.15 1.30,0.00 1.30,0.16 1.30,0.16 L 1.30,0.16 Z"></path></g><g transform="translate(388.7221812016951 170.43229619267356) rotate(0 7.218900314941493 -1.164338760474493)" stroke="none"><path fill="#8cd00000" d="M -0.65,-1.14 Q -0.65,-1.14 -0.18,-1.40 0.28,-1.67 1.55,-2.19 2.83,-2.70 4.04,-3.02 5.26,-3.34 6.57,-3.18 7.89,-3.02 9.02,-2.36 10.14,-1.70 12.06,-1.59 13.97,-1.48 14.18,-1.48 14.39,-1.49 14.60,-1.42 14.80,-1.36 14.97,-1.23 15.14,-1.10 15.26,-0.93 15.39,-0.76 15.45,-0.55 15.51,-0.35 15.50,-0.14 15.49,0.07 15.41,0.26 15.34,0.46 15.20,0.63 15.07,0.79 14.89,0.90 14.71,1.02 14.50,1.06 14.29,1.11 14.08,1.09 13.87,1.07 13.68,0.99 13.48,0.90 13.33,0.76 13.17,0.61 13.07,0.43 12.96,0.24 12.93,0.03 12.89,-0.17 12.92,-0.38 12.95,-0.59 13.05,-0.78 13.14,-0.97 13.30,-1.11 13.45,-1.26 13.64,-1.35 13.83,-1.45 14.04,-1.47 14.25,-1.50 14.46,-1.46 14.67,-1.41 14.85,-1.31 15.04,-1.20 15.18,-1.04 15.32,-0.88 15.40,-0.68 15.48,-0.49 15.49,-0.28 15.51,-0.06 15.46,0.13 15.40,0.34 15.29,0.51 15.17,0.69 15.00,0.82 14.83,0.95 14.63,1.03 14.43,1.10 14.43,1.10 14.43,1.10 12.28,1.07 10.13,1.04 9.14,0.41 8.16,-0.21 7.12,-0.53 6.09,-0.85 4.90,-0.54 3.71,-0.23 2.64,0.18 1.58,0.60 1.12,0.87 0.65,1.14 0.50,1.20 0.35,1.26 0.20,1.28 0.04,1.31 -0.11,1.29 -0.26,1.28 -0.41,1.23 -0.56,1.18 -0.70,1.09 -0.83,1.01 -0.94,0.89 -1.05,0.78 -1.13,0.64 -1.21,0.50 -1.25,0.35 -1.29,0.20 -1.30,0.04 -1.30,-0.11 -1.27,-0.26 -1.24,-0.42 -1.17,-0.56 -1.10,-0.70 -1.00,-0.82 -0.90,-0.95 -0.77,-1.04 -0.65,-1.14 -0.65,-1.14 L -0.65,-1.14 Z"></path></g><g transform="translate(401.140472858714 172.76097371362255) rotate(0 4.3481864938141825 8.285416323532672)"><text x="4.348186493814248" y="0" font-family="Virgil, Segoe UI Emoji" font-size="13.256666117652252px" fill="#8cd00000" text-anchor="middle" style="white-space: pre;" direction="ltr" dominant-baseline="text-before-edge">a</text></g><g transform="translate(412.9240672811602 161.7095629558861) rotate(0 13.22065306560944 14.794822581760627)"><text x="13.220653065609422" y="0" font-family="Virgil, Segoe UI Emoji" font-size="23.671716130817007px" fill="#8cd00000" text-anchor="middle" style="white-space: pre;" direction="ltr" dominant-baseline="text-before-edge">= </text></g><g stroke-linecap="round"><g transform="translate(432.98872077288706 174.49767438756396) rotate(0 13.963255476517816 0.3445006918375384)"><path d="M0.53 0.72 C5.42 0.6, 24 -0.25, 28.57 -0.44 M-0.64 0.05 C4.1 0.11, 22.23 0.99, 27.39 1.13" stroke="#8cd00000" stroke-width="2" fill="none"></path></g></g><mask></mask><g transform="translate(441.89082744091775 151.87255416228834) rotate(0 2.9809999465942383 13.811121702400783)"><text x="2.9809999465942383" y="0" font-family="Virgil, Segoe UI Emoji" font-size="22.097794723841254px" fill="#8cd00000" text-anchor="middle" style="white-space: pre;" direction="ltr" dominant-baseline="text-before-edge">1</text></g><g transform="translate(441.8121313786096 176.91761719459907) rotate(0 2.9809999465942383 13.811121702400783)"><text x="2.9809999465942383" y="0" font-family="Virgil, Segoe UI Emoji" font-size="22.097794723841254px" fill="#8cd00000" text-anchor="middle" style="white-space: pre;" direction="ltr" dominant-baseline="text-before-edge">1</text></g><g transform="translate(296.51484823679766 291.50847959124724) rotate(0 2.0958097688539965 4.308053413755488)" stroke="none"><path fill="#8cd00000" d="M 1.30,0.16 Q 1.30,0.16 1.16,1.23 1.03,2.30 0.81,3.64 0.59,4.98 0.39,6.10 0.19,7.21 2.74,7.26 5.29,7.30 5.50,7.33 5.71,7.37 5.89,7.47 6.08,7.57 6.23,7.73 6.37,7.88 6.46,8.08 6.55,8.27 6.57,8.48 6.59,8.69 6.54,8.90 6.49,9.11 6.38,9.29 6.27,9.47 6.11,9.61 5.95,9.74 5.75,9.82 5.55,9.90 5.34,9.91 5.13,9.91 4.92,9.86 4.72,9.80 4.54,9.68 4.37,9.56 4.24,9.39 4.11,9.22 4.05,9.01 3.98,8.81 3.98,8.60 3.98,8.39 4.05,8.19 4.12,7.99 4.25,7.82 4.38,7.65 4.56,7.53 4.74,7.41 4.94,7.36 5.15,7.30 5.36,7.32 5.57,7.33 5.77,7.41 5.96,7.49 6.12,7.63 6.29,7.77 6.39,7.95 6.50,8.13 6.55,8.34 6.59,8.55 6.57,8.76 6.54,8.97 6.45,9.16 6.36,9.36 6.21,9.51 6.06,9.66 5.88,9.76 5.69,9.86 5.48,9.89 5.27,9.92 5.27,9.92 5.27,9.92 3.21,9.78 1.15,9.63 0.00,9.51 -1.15,9.39 -1.79,8.33 -2.44,7.27 -2.20,6.04 -1.95,4.81 -1.76,3.39 -1.57,1.97 -1.43,0.90 -1.30,-0.16 -1.26,-0.31 -1.22,-0.47 -1.15,-0.60 -1.07,-0.74 -0.97,-0.86 -0.86,-0.98 -0.73,-1.07 -0.60,-1.16 -0.45,-1.22 -0.30,-1.27 -0.15,-1.29 0.00,-1.31 0.16,-1.29 0.31,-1.27 0.46,-1.21 0.61,-1.16 0.74,-1.07 0.87,-0.97 0.97,-0.86 1.08,-0.74 1.15,-0.60 1.22,-0.46 1.26,-0.30 1.30,-0.15 1.30,0.00 1.30,0.16 1.30,0.16 L 1.30,0.16 Z"></path></g><g transform="translate(289.5288156739507 291.9742150954372) rotate(0 7.218900314941493 -1.164338760474493)" stroke="none"><path fill="#8cd00000" d="M -0.65,-1.14 Q -0.65,-1.14 -0.18,-1.40 0.28,-1.67 1.55,-2.19 2.83,-2.70 4.04,-3.02 5.26,-3.34 6.57,-3.18 7.89,-3.02 9.02,-2.36 10.14,-1.70 12.06,-1.59 13.97,-1.48 14.18,-1.48 14.39,-1.49 14.60,-1.42 14.80,-1.36 14.97,-1.23 15.14,-1.10 15.26,-0.93 15.39,-0.76 15.45,-0.55 15.51,-0.35 15.50,-0.14 15.49,0.07 15.41,0.26 15.34,0.46 15.20,0.63 15.07,0.79 14.89,0.90 14.71,1.02 14.50,1.06 14.29,1.11 14.08,1.09 13.87,1.07 13.68,0.99 13.48,0.90 13.33,0.76 13.17,0.61 13.07,0.43 12.96,0.24 12.93,0.03 12.89,-0.17 12.92,-0.38 12.95,-0.59 13.05,-0.78 13.14,-0.97 13.30,-1.11 13.45,-1.26 13.64,-1.35 13.83,-1.45 14.04,-1.47 14.25,-1.50 14.46,-1.46 14.67,-1.41 14.85,-1.31 15.04,-1.20 15.18,-1.04 15.32,-0.88 15.40,-0.68 15.48,-0.49 15.49,-0.28 15.51,-0.06 15.46,0.13 15.40,0.34 15.29,0.51 15.17,0.69 15.00,0.82 14.83,0.95 14.63,1.03 14.43,1.10 14.43,1.10 14.43,1.10 12.28,1.07 10.13,1.04 9.14,0.41 8.16,-0.21 7.12,-0.53 6.09,-0.85 4.90,-0.54 3.71,-0.23 2.64,0.18 1.58,0.60 1.12,0.87 0.65,1.14 0.50,1.20 0.35,1.26 0.20,1.28 0.04,1.31 -0.11,1.29 -0.26,1.28 -0.41,1.23 -0.56,1.18 -0.70,1.09 -0.83,1.01 -0.94,0.89 -1.05,0.78 -1.13,0.64 -1.21,0.50 -1.25,0.35 -1.29,0.20 -1.30,0.04 -1.30,-0.11 -1.27,-0.26 -1.24,-0.42 -1.17,-0.56 -1.10,-0.70 -1.00,-0.82 -0.90,-0.95 -0.77,-1.04 -0.65,-1.14 -0.65,-1.14 L -0.65,-1.14 Z"></path></g><g transform="translate(301.5697937179725 294.30289261638575) rotate(0 4.725500106811523 8.285416323532672)"><text x="4.725500106811523" y="0" font-family="Virgil, Segoe UI Emoji" font-size="13.256666117652252px" fill="#8cd00000" text-anchor="middle" style="white-space: pre;" direction="ltr" dominant-baseline="text-before-edge">B</text></g><g transform="translate(313.547355490412 282.25148185864975) rotate(0 13.403999328613281 14.794822581760627)"><text x="13.403999328613281" y="0" font-family="Virgil, Segoe UI Emoji" font-size="23.671716130817007px" fill="#8cd00000" text-anchor="middle" style="white-space: pre;" direction="ltr" dominant-baseline="text-before-edge">= </text></g><g stroke-linecap="round"><g transform="translate(333.7953552451427 294.03959329032716) rotate(0 68.86112328136937 0.47785244160434104)"><path d="M-0.4 -0.82 C22.82 -0.62, 115.22 0.13, 138.12 0.31 M1.59 1.36 C24.79 1.84, 114.42 1.77, 137.4 1.78" stroke="#8cd00000" stroke-width="2" fill="none"></path></g></g><mask></mask><g transform="translate(390.3421861877705 270.63231049551985) rotate(0 7.831999778747559 13.811121702400783)"><text x="7.831999778747559" y="0" font-family="Virgil, Segoe UI Emoji" font-size="22.097794723841254px" fill="#8cd00000" text-anchor="middle" style="white-space: pre;" direction="ltr" dominant-baseline="text-before-edge">2</text></g><g transform="translate(345.54257461848556 305.09915018448294) rotate(0 23.275999069213867 13.811121702400783)"><text x="23.275999069213867" y="0" font-family="Virgil, Segoe UI Emoji" font-size="22.097794723841254px" fill="#8cd00000" text-anchor="middle" style="white-space: pre;" direction="ltr" dominant-baseline="text-before-edge">(3-1)</text></g><g transform="translate(409.2823589492823 304.8569084705031) rotate(0 27.863000869750977 13.811121702400783)"><text x="27.863000869750977" y="0" font-family="Virgil, Segoe UI Emoji" font-size="22.097794723841254px" fill="#8cd00000" text-anchor="middle" style="white-space: pre;" direction="ltr" dominant-baseline="text-before-edge">(3-0)</text></g><g transform="translate(385.68891119396676 301.3740335856529) rotate(0 14 17.5)"><text x="14" y="0" font-family="Virgil, Segoe UI Emoji" font-size="28px" fill="#8cd00000" text-anchor="middle" style="white-space: pre;" direction="ltr" dominant-baseline="text-before-edge">・</text></g><g stroke-linecap="round"><g transform="translate(331.33983238396604 310.25679830327533) rotate(0 68.66682691133269 2.2261805465872158)"><path d="M-0.36 -0.5 C2.35 -0.45, 4.87 0.61, 6.59 -0.21 M0.02 0.33 C2.61 -0.23, 4.85 0.13, 6.81 -0.07 M8.08 -0.42 C7.15 3.8, 7.55 7.52, 9.62 14.88 M7.36 0.3 C8.48 4.48, 8.9 9.41, 10.72 14.29 M10.19 13.37 C11.03 6.81, 14.02 0.1, 15.34 -8.66 M9.39 13.11 C11.69 8.51, 12.22 2.25, 13.23 -10.43 M15.35 -8.4 C60.46 -7.79, 107 -10.32, 137.7 -8.2 M12.89 -10.27 C40.11 -10.59, 67.76 -9.53, 137.14 -9.5" stroke="#8cd00000" stroke-width="2" fill="none"></path></g></g><mask></mask><g transform="translate(478.6636285594491 296.8931101513657) rotate(0 5.397819826527666 0.9974232288149096)" stroke="none"><path fill="#8cd00000" d="M -0.77,-1.05 Q -0.77,-1.05 -0.27,-1.43 0.23,-1.80 1.38,-2.19 2.52,-2.59 3.63,-2.48 4.74,-2.36 5.41,-1.49 6.09,-0.61 6.67,0.32 7.25,1.27 8.46,0.17 9.68,-0.93 9.82,-1.09 9.96,-1.24 10.14,-1.35 10.32,-1.46 10.53,-1.50 10.74,-1.54 10.95,-1.52 11.16,-1.49 11.35,-1.40 11.55,-1.30 11.70,-1.16 11.85,-1.01 11.95,-0.82 12.04,-0.63 12.07,-0.42 12.10,-0.21 12.07,-0.00 12.03,0.20 11.93,0.39 11.82,0.57 11.67,0.72 11.51,0.86 11.32,0.95 11.12,1.03 10.91,1.05 10.70,1.07 10.49,1.02 10.28,0.97 10.10,0.86 9.92,0.75 9.79,0.58 9.65,0.42 9.58,0.22 9.50,0.02 9.50,-0.18 9.49,-0.39 9.55,-0.60 9.61,-0.80 9.73,-0.97 9.85,-1.15 10.02,-1.27 10.20,-1.40 10.40,-1.46 10.60,-1.53 10.81,-1.53 11.02,-1.52 11.23,-1.45 11.43,-1.38 11.59,-1.25 11.76,-1.12 11.88,-0.94 11.99,-0.76 12.05,-0.56 12.10,-0.35 12.08,-0.14 12.07,0.06 11.99,0.26 11.90,0.46 11.90,0.46 11.90,0.46 10.10,2.45 8.30,4.44 7.27,4.04 6.23,3.63 5.43,2.87 4.62,2.10 4.27,1.05 3.92,0.00 2.85,0.16 1.78,0.31 1.28,0.68 0.77,1.05 0.63,1.13 0.50,1.21 0.34,1.25 0.19,1.29 0.03,1.30 -0.12,1.30 -0.27,1.27 -0.43,1.24 -0.57,1.17 -0.71,1.10 -0.83,1.00 -0.95,0.89 -1.05,0.77 -1.14,0.64 -1.20,0.49 -1.26,0.35 -1.28,0.19 -1.31,0.03 -1.29,-0.12 -1.28,-0.27 -1.23,-0.42 -1.17,-0.57 -1.09,-0.70 -1.00,-0.84 -0.89,-0.95 -0.77,-1.05 -0.77,-1.05 L -0.77,-1.05 Z"></path></g><g transform="translate(478.898316377994 300.530771338808) rotate(0 5.339147871891328 0.9387512741787987)" stroke="none"><path fill="#8cd00000" d="M -0.71,-1.10 Q -0.71,-1.10 -0.23,-1.40 0.23,-1.71 1.35,-2.09 2.47,-2.47 3.55,-1.94 4.62,-1.41 5.09,-0.37 5.56,0.67 6.72,1.22 7.87,1.78 9.20,0.35 10.52,-1.06 10.73,-1.06 10.94,-1.05 11.14,-0.97 11.34,-0.89 11.50,-0.76 11.67,-0.62 11.78,-0.44 11.89,-0.26 11.94,-0.05 11.98,0.15 11.96,0.36 11.94,0.57 11.86,0.76 11.77,0.96 11.62,1.11 11.48,1.27 11.29,1.37 11.11,1.47 10.90,1.51 10.69,1.54 10.48,1.51 10.27,1.48 10.08,1.38 9.89,1.28 9.74,1.13 9.59,0.98 9.50,0.79 9.41,0.59 9.39,0.38 9.36,0.17 9.40,-0.03 9.45,-0.23 9.56,-0.42 9.66,-0.60 9.82,-0.74 9.98,-0.88 10.18,-0.96 10.38,-1.04 10.59,-1.05 10.80,-1.07 11.01,-1.01 11.21,-0.96 11.39,-0.84 11.57,-0.72 11.70,-0.56 11.83,-0.39 11.90,-0.19 11.97,0.00 11.97,0.22 11.97,0.43 11.91,0.63 11.84,0.83 11.71,1.00 11.59,1.17 11.41,1.30 11.24,1.42 11.03,1.47 10.83,1.53 10.83,1.53 10.83,1.53 10.02,2.72 9.22,3.91 8.10,4.06 6.99,4.20 5.87,3.85 4.75,3.49 4.01,2.68 3.27,1.87 2.46,1.18 1.65,0.49 1.18,0.80 0.71,1.10 0.56,1.17 0.42,1.24 0.27,1.27 0.11,1.30 -0.04,1.30 -0.20,1.29 -0.35,1.25 -0.50,1.21 -0.64,1.13 -0.78,1.05 -0.89,0.94 -1.01,0.83 -1.09,0.70 -1.18,0.57 -1.23,0.42 -1.28,0.27 -1.29,0.11 -1.31,-0.04 -1.28,-0.19 -1.26,-0.35 -1.20,-0.50 -1.14,-0.64 -1.04,-0.77 -0.95,-0.90 -0.83,-1.00 -0.71,-1.10 -0.71,-1.10 L -0.71,-1.10 Z"></path></g><g transform="translate(495.02862756594686 287.3626756212276) rotate(0 14.037971562200937 13.3950109211886)"><text x="14.037971562200882" y="0" font-family="Virgil, Segoe UI Emoji" font-size="21.43201747390176px" fill="#8cd00000" text-anchor="middle" style="white-space: pre;" direction="ltr" dominant-baseline="text-before-edge">.81</text></g><g transform="translate(471.3813822838151 161.0693405851531) rotate(0 13.22065306560944 14.794822581760627)"><text x="13.220653065609422" y="0" font-family="Virgil, Segoe UI Emoji" font-size="23.671716130817007px" fill="#8cd00000" text-anchor="middle" style="white-space: pre;" direction="ltr" dominant-baseline="text-before-edge">= </text></g><g transform="translate(501.7299371931899 161.70025371380518) rotate(0 2.9809999465942383 13.811121702400783)"><text x="2.9809999465942383" y="0" font-family="Virgil, Segoe UI Emoji" font-size="22.097794723841254px" fill="#8cd00000" text-anchor="middle" style="white-space: pre;" direction="ltr" dominant-baseline="text-before-edge">1</text></g><g transform="translate(475.26487831047234 234.90310962756314) rotate(0 5.397819826527666 0.9974232288149096)" stroke="none"><path fill="#8cd000" d="M -0.77,-1.05 Q -0.77,-1.05 -0.27,-1.43 0.23,-1.80 1.38,-2.19 2.52,-2.59 3.63,-2.48 4.74,-2.36 5.41,-1.49 6.09,-0.61 6.67,0.32 7.25,1.27 8.45,0.19 9.65,-0.88 9.79,-1.04 9.93,-1.20 10.11,-1.31 10.30,-1.41 10.51,-1.46 10.71,-1.50 10.92,-1.47 11.14,-1.44 11.33,-1.35 11.52,-1.26 11.67,-1.11 11.82,-0.96 11.92,-0.77 12.01,-0.58 12.05,-0.37 12.08,-0.16 12.04,0.04 12.00,0.25 11.90,0.43 11.79,0.62 11.64,0.76 11.48,0.90 11.29,0.99 11.09,1.08 10.88,1.10 10.67,1.12 10.46,1.07 10.26,1.02 10.08,0.90 9.90,0.79 9.76,0.63 9.63,0.46 9.55,0.26 9.48,0.07 9.47,-0.14 9.46,-0.35 9.52,-0.55 9.58,-0.76 9.70,-0.93 9.82,-1.10 10.00,-1.23 10.17,-1.36 10.37,-1.42 10.57,-1.48 10.78,-1.48 11.00,-1.48 11.20,-1.41 11.40,-1.33 11.56,-1.20 11.73,-1.07 11.85,-0.89 11.96,-0.72 12.02,-0.51 12.07,-0.30 12.06,-0.09 12.04,0.11 11.96,0.31 11.88,0.50 11.88,0.50 11.88,0.50 10.09,2.47 8.30,4.44 7.27,4.04 6.23,3.63 5.43,2.87 4.62,2.10 4.27,1.05 3.92,0.00 2.85,0.16 1.78,0.31 1.28,0.68 0.77,1.05 0.63,1.13 0.50,1.21 0.34,1.25 0.19,1.29 0.03,1.30 -0.12,1.30 -0.27,1.27 -0.43,1.24 -0.57,1.17 -0.71,1.10 -0.83,1.00 -0.95,0.89 -1.05,0.77 -1.14,0.64 -1.20,0.49 -1.26,0.35 -1.28,0.19 -1.31,0.03 -1.29,-0.12 -1.28,-0.27 -1.23,-0.42 -1.17,-0.57 -1.09,-0.70 -1.00,-0.84 -0.89,-0.95 -0.77,-1.05 -0.77,-1.05 L -0.77,-1.05 Z"></path></g><g transform="translate(475.4995661290168 238.5407708150052) rotate(0 5.339147871891328 0.9387512741787987)" stroke="none"><path fill="#8cd000" d="M -0.71,-1.10 Q -0.71,-1.10 -0.23,-1.40 0.23,-1.71 1.35,-2.09 2.47,-2.47 3.55,-1.94 4.62,-1.41 5.09,-0.37 5.56,0.67 6.72,1.22 7.87,1.78 9.18,0.35 10.48,-1.06 10.69,-1.05 10.90,-1.04 11.10,-0.96 11.30,-0.89 11.46,-0.75 11.63,-0.62 11.74,-0.44 11.85,-0.25 11.90,-0.05 11.94,0.15 11.92,0.36 11.90,0.57 11.82,0.77 11.73,0.96 11.58,1.12 11.44,1.27 11.25,1.37 11.07,1.47 10.86,1.51 10.65,1.55 10.44,1.52 10.23,1.48 10.04,1.39 9.85,1.29 9.70,1.14 9.55,0.98 9.46,0.79 9.37,0.60 9.35,0.39 9.32,0.18 9.36,-0.02 9.41,-0.23 9.52,-0.41 9.62,-0.60 9.78,-0.73 9.94,-0.87 10.14,-0.95 10.34,-1.04 10.55,-1.05 10.76,-1.06 10.97,-1.01 11.17,-0.95 11.35,-0.84 11.53,-0.72 11.66,-0.55 11.79,-0.38 11.86,-0.18 11.93,0.01 11.93,0.22 11.93,0.43 11.87,0.64 11.80,0.84 11.67,1.01 11.55,1.18 11.37,1.30 11.20,1.42 10.99,1.48 10.79,1.54 10.79,1.54 10.79,1.54 10.00,2.73 9.22,3.91 8.10,4.06 6.99,4.20 5.87,3.85 4.75,3.49 4.01,2.68 3.27,1.87 2.46,1.18 1.65,0.49 1.18,0.80 0.71,1.10 0.56,1.17 0.42,1.24 0.27,1.27 0.11,1.30 -0.04,1.30 -0.20,1.29 -0.35,1.25 -0.50,1.21 -0.64,1.13 -0.78,1.05 -0.89,0.94 -1.01,0.83 -1.09,0.70 -1.18,0.57 -1.23,0.42 -1.28,0.27 -1.29,0.11 -1.31,-0.04 -1.28,-0.19 -1.26,-0.35 -1.20,-0.50 -1.14,-0.64 -1.04,-0.77 -0.95,-0.90 -0.83,-1.00 -0.71,-1.10 -0.71,-1.10 L -0.71,-1.10 Z"></path></g><g transform="translate(494.3018437060946 225.65945362021387) rotate(0 14.995334192894916 12.780549414693155)"><text x="14.995334192894916" y="0" font-family="Virgil, Segoe UI Emoji" font-size="20.448879063509132px" fill="#8cd000" text-anchor="middle" style="white-space: pre;" direction="ltr" dominant-baseline="text-before-edge">.67</text></g></svg>