<svg version="1.1" xmlns="http://www.w3.org/2000/svg" viewBox="0 0 546.1752453520976 436.93502398008866" width="1638.5257360562928" height="1310.8050719402659">
  <!-- svg-source:excalidraw -->
  
  <defs>
    <style class="style-fonts">
      @font-face {
        font-family: "Virgil";
        src: url("https://excalidraw.com/Virgil.woff2");
      }
      @font-face {
        font-family: "Cascadia";
        src: url("https://excalidraw.com/Cascadia.woff2");
      }
    </style>
  </defs>
  <g stroke-linecap="round"><g transform="translate(217.6069835840317 147.31940329282577) rotate(0 16.13472609351743 14.369990427038715)"><path d="M0 0 C5.38 4.79, 26.89 23.95, 32.27 28.74 M0 0 C5.38 4.79, 26.89 23.95, 32.27 28.74" stroke="#d77d0000" stroke-width="2" fill="none"></path></g></g><mask></mask><g stroke-linecap="round"><g transform="translate(54.56556528211877 415.45839756205726) rotate(0 0.6188634619127242 -202.7232770642268)"><path d="M-0.38 0.01 C-0.19 -67.32, 0.62 -336.57, 0.49 -403.96 M1.61 -1.03 C1.75 -68.67, -0.12 -337.92, -0.19 -405.46" stroke="#8cd000" stroke-width="2" fill="none"></path></g><g transform="translate(54.56556528211877 415.45839756205726) rotate(0 0.6188634619127242 -202.7232770642268)"><path d="M-0.29 -404.68 L6.31 -390.22 L-4.8 -392.85 L1.66 -404.57" stroke="none" stroke-width="0" fill="#8cd000" fill-rule="evenodd"></path><path d="M-0.18 -404.84 C2.85 -403.52, 3.95 -397.45, 5.31 -390.49 M0.12 -405.93 C1.95 -401.15, 3.99 -395.23, 6.52 -391.46 M5.54 -391.53 C0.75 -391.26, -2.65 -392.24, -6.11 -392.29 M6.59 -391.62 C3.36 -391.36, -0.05 -391.79, -6.69 -392 M-6.17 -392.93 C-3.87 -395.96, -4.45 -398.45, -1.59 -406.07 M-6.26 -391.74 C-4.82 -396.06, -3.57 -399.48, -0.06 -405.26 M-0.19 -405.46 C-0.19 -405.46, -0.19 -405.46, -0.19 -405.46 M-0.19 -405.46 C-0.19 -405.46, -0.19 -405.46, -0.19 -405.46" stroke="#8cd000" stroke-width="2" fill="none"></path></g></g><mask></mask><g stroke-linecap="round"><g transform="translate(63.9540044138098 386.5570671966558) rotate(0 235.86525372463302 -0.5758780056040678)"><path d="M-0.49 -0.2 C78.28 0.05, 393.33 0.38, 472.22 0.35 M1.45 -1.34 C80.07 -1.33, 392.63 -1.72, 471.11 -1.32" stroke="#8cd000" stroke-width="2" fill="none"></path></g><g transform="translate(63.9540044138098 386.5570671966558) rotate(0 235.86525372463302 -0.5758780056040678)"><path d="M473.08 -2.62 L457.3 3.79 L456.67 -9.65 L471.38 -0.78" stroke="none" stroke-width="0" fill="#8cd000" fill-rule="evenodd"></path><path d="M470.86 -1.72 C468.48 0.74, 463.98 1.68, 456.87 3.61 M471.27 -1.3 C467.04 0.01, 462.13 3.45, 457.26 5.73 M458.4 4.48 C456.48 2.11, 457.02 -0.07, 457.68 -8.62 M457.47 5.24 C457.46 0.52, 457.96 -5.34, 458.11 -7.4 M457.15 -8.9 C461.44 -6.47, 466.95 -2.62, 471.88 -1.91 M456.99 -7.05 C460.34 -6.11, 463 -4.18, 471.72 -0.87 M471.11 -1.32 C471.11 -1.32, 471.11 -1.32, 471.11 -1.32 M471.11 -1.32 C471.11 -1.32, 471.11 -1.32, 471.11 -1.32" stroke="#8cd000" stroke-width="2" fill="none"></path></g></g><mask></mask><g transform="translate(78.83053904232065 390.92660359924355) rotate(0 17.76599884033203 17.5)"><text x="17.76599884033203" y="0" font-family="Virgil, Segoe UI Emoji" font-size="28px" fill="#8cd000" text-anchor="middle" style="white-space: pre;" direction="ltr" dominant-baseline="text-before-edge">KA</text></g><g transform="translate(202.23687435178817 390.4223934088212) rotate(0 19.908000946044922 17.5)"><text x="19.908000946044922" y="0" font-family="Virgil, Segoe UI Emoji" font-size="28px" fill="#8cd000" text-anchor="middle" style="white-space: pre;" direction="ltr" dominant-baseline="text-before-edge">MA</text></g><g transform="translate(318.73700916396547 391.4308137896661) rotate(0 18.871999740600586 17.5)"><text x="18.871999740600586" y="0" font-family="Virgil, Segoe UI Emoji" font-size="28px" fill="#8cd000" text-anchor="middle" style="white-space: pre;" direction="ltr" dominant-baseline="text-before-edge">HZ</text></g><g transform="translate(434.15830103244525 391.93502398008866) rotate(0 16.898000717163086 17.5)"><text x="16.898000717163086" y="0" font-family="Virgil, Segoe UI Emoji" font-size="28px" fill="#8cd000" text-anchor="middle" style="white-space: pre;" direction="ltr" dominant-baseline="text-before-edge">HA</text></g><g transform="translate(12.14200210571289 338.5624221277045) rotate(0 17.76599884033203 17.5)"><text x="17.76599884033203" y="0" font-family="Virgil, Segoe UI Emoji" font-size="28px" fill="#8cd000" text-anchor="middle" style="white-space: pre;" direction="ltr" dominant-baseline="text-before-edge">KA</text></g><g transform="translate(10 229.14881080604107) rotate(0 19.908000946044922 17.5)"><text x="19.908000946044922" y="0" font-family="Virgil, Segoe UI Emoji" font-size="28px" fill="#8cd000" text-anchor="middle" style="white-space: pre;" direction="ltr" dominant-baseline="text-before-edge">MA</text></g><g transform="translate(11.036001205444336 129.31519310240344) rotate(0 18.871999740600586 17.5)"><text x="18.871999740600586" y="0" font-family="Virgil, Segoe UI Emoji" font-size="28px" fill="#8cd000" text-anchor="middle" style="white-space: pre;" direction="ltr" dominant-baseline="text-before-edge">HZ</text></g><g transform="translate(13.010000228881836 45.61630149228279) rotate(0 16.898000717163086 17.5)"><text x="16.898000717163086" y="0" font-family="Virgil, Segoe UI Emoji" font-size="28px" fill="#8cd000" text-anchor="middle" style="white-space: pre;" direction="ltr" dominant-baseline="text-before-edge">HA</text></g><g stroke-linecap="round" transform="translate(93.06706654969594 344.9697979384117) rotate(0 4.789996809012791 4.789996809012791)"><path d="M5.28 1.1 L8.29 4.8 L3.97 8.9 L0.01 5.87 L3.48 2.51 L7.65 2.68" stroke="none" stroke-width="0" fill="#8cd000"></path><path d="M6.25 1.25 M6.25 1.25 C6.52 1.76, 7.02 2.07, 8.33 3.75 M6.25 1.25 C6.75 1.92, 7.25 2.54, 8.33 3.75 M8.33 3.75 C8.02 4.54, 8.66 5.44, 8.33 6.25 M8.33 3.75 C10.22 6.22, 11.14 4.17, 8.33 6.25 M8.33 6.25 C7.78 7.07, 6.74 7.48, 6.25 8.33 M8.33 6.25 C7.8 6.63, 7.38 7.06, 6.25 8.33 M6.25 8.33 C6.24 8.42, 6.13 10.72, 3.75 8.33 M6.25 8.33 C2.74 9.85, 4.63 8.46, 3.75 8.33 M3.75 8.33 C3.45 8.2, 2.79 7.43, 1.25 6.25 M3.75 8.33 C2.99 7.93, 2.43 7.16, 1.25 6.25 M1.25 6.25 C-0.98 6.04, -1.44 3.47, 1.25 3.75 M1.25 6.25 C-0.46 4.45, 0.53 4.81, 1.25 3.75 M1.25 3.75 C1.88 3.05, 2.91 2.04, 3.75 1.25 M1.25 3.75 C1.76 3.16, 2.4 2.6, 3.75 1.25 M3.75 1.25 C4.01 -1.61, 5.45 0.85, 6.25 1.25 M3.75 1.25 C5.77 -2.19, 4.83 0.17, 6.25 1.25" stroke="#8cd000" stroke-width="2" fill="none"></path></g><g stroke-linecap="round" transform="translate(212.8169867750189 142.02519629339065) rotate(0 4.789996809012791 4.789996809012791)"><path d="M6.61 0.43 L9.35 4.64 L3.89 8.48 L0.61 3.68 L3.91 0.58 L5.11 0.91" stroke="none" stroke-width="0" fill="#8cd000"></path><path d="M6.25 1.25 M6.25 1.25 C6.78 1.9, 7.34 2.59, 8.33 3.75 M6.25 1.25 C6.9 1.99, 7.43 2.45, 8.33 3.75 M8.33 3.75 C8.71 3.25, 8.46 6.87, 8.33 6.25 M8.33 3.75 C8.31 3.79, 8.73 3.47, 8.33 6.25 M8.33 6.25 C7.73 6.73, 6.85 7.72, 6.25 8.33 M8.33 6.25 C7.8 6.9, 7.4 7.37, 6.25 8.33 M6.25 8.33 C4.87 8.69, 3.15 8.02, 3.75 8.33 M6.25 8.33 C3.07 11.68, 4.15 8.33, 3.75 8.33 M3.75 8.33 C2.86 7.73, 2.41 7.34, 1.25 6.25 M3.75 8.33 C2.88 7.59, 2.39 7.01, 1.25 6.25 M1.25 6.25 C1.28 3.99, -1.62 4.53, 1.25 3.75 M1.25 6.25 C-1.71 5.32, -1.5 6.21, 1.25 3.75 M1.25 3.75 C2.05 3.24, 2.19 2.46, 3.75 1.25 M1.25 3.75 C2.12 3.14, 2.83 2.17, 3.75 1.25 M3.75 1.25 C3.81 -0.84, 6.96 -1.51, 6.25 1.25 M3.75 1.25 C4.12 0.39, 3.95 -1.91, 6.25 1.25" stroke="#8cd000" stroke-width="2" fill="none"></path></g><g stroke-linecap="round" transform="translate(333.3232222859756 243.3714445682955) rotate(0 4.789996809012791 4.789996809012791)"><path d="M5.06 1.28 L7.55 5.14 L6.14 7.64 L1.58 4.13 L4.66 0.59 L5.05 2.37" stroke="none" stroke-width="0" fill="#8cd000"></path><path d="M6.25 1.25 M6.25 1.25 C6.96 1.65, 7.11 2.56, 8.33 3.75 M6.25 1.25 C7.16 2.37, 7.77 3.17, 8.33 3.75 M8.33 3.75 C10.6 3.19, 11.26 4.35, 8.33 6.25 M8.33 3.75 C11.63 5.14, 9.32 6.48, 8.33 6.25 M8.33 6.25 C7.55 6.87, 6.94 7.6, 6.25 8.33 M8.33 6.25 C7.56 7.11, 6.83 7.78, 6.25 8.33 M6.25 8.33 C3.3 9.32, 4.05 9.08, 3.75 8.33 M6.25 8.33 C3.83 11.12, 4.27 7.85, 3.75 8.33 M3.75 8.33 C3.16 7.59, 2.3 6.7, 1.25 6.25 M3.75 8.33 C3.03 7.62, 2.09 7.04, 1.25 6.25 M1.25 6.25 C-1.74 6.12, -1.23 4.59, 1.25 3.75 M1.25 6.25 C1.98 5.19, -1.69 3, 1.25 3.75 M1.25 3.75 C1.94 3.2, 2.8 2.28, 3.75 1.25 M1.25 3.75 C1.73 3.35, 2.19 2.74, 3.75 1.25 M3.75 1.25 C6.5 0.45, 5.35 1.84, 6.25 1.25 M3.75 1.25 C3.72 -0.56, 4.92 -1.47, 6.25 1.25" stroke="#8cd000" stroke-width="2" fill="none"></path></g><g stroke-linecap="round" transform="translate(435.1736807513025 55.30104354073558) rotate(0 4.789996809012791 4.789996809012791)"><path d="M6.7 1.01 L10.21 5.62 L4.7 7.57 L1.9 4.98 L4.09 2.07 L4.91 1.97" stroke="none" stroke-width="0" fill="#8cd000"></path><path d="M6.25 1.25 M6.25 1.25 C7.33 2, 7.74 3.11, 8.33 3.75 M6.25 1.25 C6.88 1.95, 7.1 2.35, 8.33 3.75 M8.33 3.75 C8.88 4.39, 7.72 6.06, 8.33 6.25 M8.33 3.75 C10.85 7.29, 9.71 4.11, 8.33 6.25 M8.33 6.25 C7.47 6.84, 6.76 7.51, 6.25 8.33 M8.33 6.25 C7.96 6.83, 7.2 7.28, 6.25 8.33 M6.25 8.33 C4.53 11.56, 3 8.06, 3.75 8.33 M6.25 8.33 C5.18 9.73, 3 8.36, 3.75 8.33 M3.75 8.33 C2.88 7.4, 2.52 7.12, 1.25 6.25 M3.75 8.33 C3.17 7.74, 2.31 7.08, 1.25 6.25 M1.25 6.25 C-0.6 4.7, 1.78 3.29, 1.25 3.75 M1.25 6.25 C-0.65 6.12, 0.29 5.51, 1.25 3.75 M1.25 3.75 C2.12 2.87, 2.58 2.66, 3.75 1.25 M1.25 3.75 C1.72 3.23, 2.25 2.76, 3.75 1.25 M3.75 1.25 C6.7 1.72, 5.68 0.25, 6.25 1.25 M3.75 1.25 C6.15 -0.6, 4.38 0.48, 6.25 1.25" stroke="#8cd000" stroke-width="2" fill="none"></path></g><g stroke-linecap="round"><g transform="translate(98.61337864434245 351.02032022348055) rotate(0 20.924722902529993 -30.504716520555803)"><path d="M0 0 C6.97 -10.17, 34.87 -50.84, 41.85 -61.01 M0 0 C6.97 -10.17, 34.87 -50.84, 41.85 -61.01" stroke="#8cd00000" stroke-width="2" fill="none"></path></g></g><mask></mask><g stroke-linecap="round"><g transform="translate(99.11758883476477 350.01189984263567) rotate(0 34.790503139146495 -18.403671950417902)"><path d="M0 0 C11.6 -6.13, 57.98 -30.67, 69.58 -36.81 M0 0 C11.6 -6.13, 57.98 -30.67, 69.58 -36.81" stroke="#8cd00000" stroke-width="2" fill="none"></path></g></g><mask></mask><g stroke-linecap="round"><g transform="translate(99.11758883476477 350.01189984263567) rotate(0 33.02576747266812 -27.983665568443826)"><path d="M0 0 C11.01 -9.33, 55.04 -46.64, 66.05 -55.97 M0 0 C11.01 -9.33, 55.04 -46.64, 66.05 -55.97" stroke="#8cd00000" stroke-width="2" fill="none"></path></g></g><mask></mask><g stroke-linecap="round"><g transform="translate(220.6322447265661 146.81519310240344) rotate(0 28.23577066365533 -11.09262418929302)"><path d="M0 0 C9.41 -3.7, 47.06 -18.49, 56.47 -22.19 M0 0 C9.41 -3.7, 47.06 -18.49, 56.47 -22.19" stroke="#8cd00000" stroke-width="2" fill="none"></path></g></g><mask></mask><g stroke-linecap="round"><g transform="translate(338.1132190949884 248.66565156773083) rotate(0 51.42943942308602 -94.79151579941356)"><path d="M0 0 C17.14 -31.6, 85.72 -157.99, 102.86 -189.58 M0 0 C17.14 -31.6, 85.72 -157.99, 102.86 -189.58" stroke="#8cd00000" stroke-width="2" fill="none"></path></g></g><mask></mask></svg>