<svg version="1.1" xmlns="http://www.w3.org/2000/svg" viewBox="0 0 647.419776319183 400.55343517620395" width="1942.259328957549" height="1201.6603055286118">
  <!-- svg-source:excalidraw -->
  
  <defs>
    <style class="style-fonts">
      @font-face {
        font-family: "Virgil";
        src: url("https://excalidraw.com/Virgil.woff2");
      }
      @font-face {
        font-family: "Cascadia";
        src: url("https://excalidraw.com/Cascadia.woff2");
      }
    </style>
  </defs>
  <g stroke-linecap="round" transform="translate(10 13.302954389636795) rotate(0 132.4321839977506 163.83337723020975)"><path d="M196.25 19.38 C208.75 24.84, 219.69 37.34, 228.8 49.88 C237.92 62.43, 244.94 79.33, 250.96 94.64 C256.98 109.94, 263.22 124.85, 264.9 141.7 C266.59 158.54, 264.04 178.9, 261.07 195.71 C258.1 212.52, 253.5 227.83, 247.07 242.54 C240.63 257.26, 232.39 272.68, 222.46 284 C212.53 295.31, 199.63 303.2, 187.48 310.42 C175.33 317.64, 162.84 325.08, 149.57 327.31 C136.3 329.53, 121.52 327.17, 107.87 323.75 C94.21 320.33, 79.5 314.49, 67.65 306.78 C55.79 299.08, 46.02 289.78, 36.74 277.52 C27.45 265.26, 18.14 248.94, 11.95 233.2 C5.75 217.46, 1.23 199.58, -0.43 183.08 C-2.09 166.58, -1.14 150.85, 1.98 134.18 C5.11 117.51, 11.44 97.84, 18.34 83.04 C25.24 68.24, 33.7 56.58, 43.39 45.39 C53.07 34.2, 64.27 23.14, 76.44 15.9 C88.61 8.65, 102.65 4, 116.4 1.93 C130.15 -0.13, 142.78 -1.79, 158.94 3.52 C175.09 8.83, 202.16 25.38, 213.31 33.79 C224.47 42.2, 227.35 51.8, 225.87 53.98 M210.36 31.65 C222.45 39.89, 235.91 57.77, 244.26 72.05 C252.6 86.34, 256.83 101.78, 260.44 117.38 C264.05 132.99, 266.07 148.63, 265.91 165.67 C265.75 182.7, 264.11 203.66, 259.49 219.59 C254.87 235.52, 247.04 247.55, 238.18 261.24 C229.32 274.94, 217.74 291.97, 206.34 301.77 C194.95 311.57, 183.06 315.31, 169.81 320.06 C156.57 324.82, 140.81 330.25, 126.88 330.3 C112.95 330.35, 98.74 326.22, 86.23 320.36 C73.71 314.51, 62.38 305.77, 51.79 295.16 C41.2 284.55, 29.96 270.71, 22.68 256.7 C15.39 242.7, 12.31 227.15, 8.08 211.13 C3.85 195.1, -2.16 177.43, -2.7 160.54 C-3.24 143.66, -0.38 125.86, 4.85 109.81 C10.07 93.77, 19.56 77.49, 28.67 64.27 C37.78 51.05, 48.72 39.86, 59.51 30.48 C70.3 21.1, 80.78 12.7, 93.39 8.01 C106 3.31, 121.53 1.85, 135.15 2.3 C148.77 2.74, 162.52 5.14, 175.12 10.69 C187.73 16.24, 204.75 31.35, 210.78 35.59 C216.81 39.83, 212.2 34.69, 211.31 36.13" stroke="#8cd000" stroke-width="1" fill="none"></path></g><g stroke-linecap="round" transform="translate(372.55470284782814 9.999415953998863) rotate(0.27602471220978975 132.4321839977506 159.9670698549382)"><path d="M66.49 19.77 C76.35 10.02, 90.83 7.49, 104.39 4.39 C117.94 1.29, 134.29 -0.41, 147.82 1.17 C161.35 2.76, 173.25 6.92, 185.57 13.89 C197.89 20.86, 211.51 31.98, 221.73 42.97 C231.95 53.96, 239.97 65.77, 246.89 79.81 C253.82 93.86, 260.46 110.87, 263.29 127.25 C266.12 143.63, 265.55 161.34, 263.87 178.1 C262.19 194.86, 258.8 212.64, 253.23 227.82 C247.66 242.99, 239.69 256.98, 230.46 269.14 C221.22 281.3, 209.67 292.63, 197.82 300.76 C185.98 308.88, 172.77 314.55, 159.39 317.89 C146 321.22, 130.86 322.92, 117.49 320.77 C104.13 318.63, 91.34 312.17, 79.22 305.01 C67.09 297.85, 54.98 288.64, 44.76 277.8 C34.55 266.96, 24.96 254.61, 17.92 239.96 C10.88 225.3, 5.34 206.31, 2.53 189.87 C-0.28 173.43, -0.4 157.09, 1.04 141.3 C2.49 125.5, 5.24 109.82, 11.21 95.1 C17.19 80.38, 22.89 67.57, 36.88 52.98 C50.87 38.38, 80.66 15.57, 95.15 7.53 C109.65 -0.51, 123.62 2.29, 123.85 4.72 M90.76 7.65 C102.86 0.35, 119.41 2.43, 132.27 2.69 C145.13 2.95, 155.78 5.33, 167.94 9.22 C180.11 13.11, 193.57 16.79, 205.27 26.03 C216.96 35.28, 229.6 50.87, 238.11 64.68 C246.63 78.49, 251.97 93.82, 256.38 108.88 C260.79 123.95, 263.76 138.54, 264.56 155.07 C265.37 171.6, 265.42 192.28, 261.21 208.05 C257 223.81, 247.26 236.25, 239.29 249.65 C231.33 263.06, 223.64 278.34, 213.43 288.49 C203.21 298.63, 191.2 304.82, 177.98 310.53 C164.76 316.24, 147.82 321.92, 134.08 322.75 C120.35 323.57, 108.6 320.31, 95.56 315.49 C82.51 310.67, 66.79 303.46, 55.81 293.82 C44.84 284.19, 37.6 270.85, 29.72 257.7 C21.84 244.55, 13.18 231.03, 8.55 214.93 C3.93 198.83, 2.55 177.53, 1.97 161.1 C1.4 144.67, 1.65 131.68, 5.12 116.36 C8.6 101.04, 14.52 83.39, 22.83 69.17 C31.13 54.95, 43.62 40.85, 54.95 31.05 C66.29 21.24, 84.83 13.33, 90.83 10.34 C96.83 7.35, 90.83 11.08, 90.96 13.11" stroke="#8cd000" stroke-width="1" fill="none"></path></g><g transform="translate(157.45896729378455 358.4123029897467) rotate(0 178.0869903564453 16.07056609322862)"><text x="178.0869903564453" y="0" font-family="Virgil, Segoe UI Emoji" font-size="25.712905749165795px" fill="#8cd000" text-anchor="middle" style="white-space: pre;" direction="ltr" dominant-baseline="text-before-edge">Messung des Lieblingsfaches</text></g></svg>