<svg version="1.1" xmlns="http://www.w3.org/2000/svg" viewBox="0 0 647.419776319183 400.55343517620395" width="1942.259328957549" height="1201.6603055286118">
  <!-- svg-source:excalidraw -->
  
  <defs>
    <style class="style-fonts">
      @font-face {
        font-family: "Virgil";
        src: url("https://excalidraw.com/Virgil.woff2");
      }
      @font-face {
        font-family: "Cascadia";
        src: url("https://excalidraw.com/Cascadia.woff2");
      }
    </style>
  </defs>
  <g stroke-linecap="round" transform="translate(59.746562723554234 126.58952235850204) rotate(0 31.91624845411684 31.73282173886337)"><path d="M36.93 1.25 C43.2 1.8, 50.31 5.27, 54.68 10.16 C59.04 15.06, 62.85 23.68, 63.13 30.65 C63.42 37.62, 60.58 46.62, 56.38 51.97 C52.18 57.32, 44.6 61.42, 37.94 62.74 C31.28 64.05, 22.49 62.9, 16.43 59.85 C10.37 56.8, 3.88 50.81, 1.56 44.43 C-0.75 38.05, 0.31 28.27, 2.54 21.56 C4.77 14.85, 8.8 7.53, 14.93 4.19 C21.06 0.85, 34.56 1.66, 39.32 1.51 C44.08 1.35, 43.41 2.79, 43.5 3.25" stroke="#8cd000" stroke-width="2.5" fill="none" stroke-dasharray="1.5 8"></path></g><g stroke-linecap="round" transform="translate(81.75776855397976 137.30646984897248) rotate(0 8.987909047423727 9.354762477930826)"><path d="M11.73 -0.73 C13.6 -0.69, 14.67 1.25, 15.72 2.85 C16.78 4.45, 17.93 6.87, 18.05 8.87 C18.18 10.88, 17.76 13.36, 16.47 14.89 C15.17 16.42, 12.31 17.78, 10.3 18.05 C8.28 18.33, 5.88 17.34, 4.37 16.55 C2.86 15.76, 1.92 15.1, 1.22 13.32 C0.53 11.55, -0.26 8.05, 0.21 5.9 C0.67 3.75, 1.94 1.27, 4.03 0.41 C6.13 -0.46, 11.09 0.42, 12.76 0.71 C14.44 1.01, 14.16 1.96, 14.06 2.16" stroke="#8cd000" stroke-width="2.5" fill="none" stroke-dasharray="1.5 8"></path></g><g stroke-linecap="round"><g transform="translate(72.95328622180978 173.54676146340972) rotate(0 19.1470880005794 -2.05663210888558)"><path d="M0.33 0.48 C3.32 -1.32, 10.9 -10.3, 17.21 -10.63 C23.52 -10.95, 38.01 -4.33, 38.2 -1.47 C38.39 1.39, 24.71 6.42, 18.36 6.52 C12.01 6.62, 3.01 0.35, 0.1 -0.87" stroke="#8cd000" stroke-width="2.5" fill="none" stroke-dasharray="1.5 8"></path></g></g><mask></mask><g stroke-linecap="round" transform="translate(163.45286059463933 61.29532246684598) rotate(0 31.91624845411684 31.732821738863368)"><path d="M36.07 1.1 C42.67 1.55, 52.03 4.9, 56.71 9.77 C61.38 14.64, 64.12 23.39, 64.12 30.32 C64.13 37.25, 61.13 45.79, 56.73 51.34 C52.33 56.9, 44.51 62.4, 37.71 63.64 C30.92 64.88, 22.02 62.28, 15.96 58.79 C9.89 55.31, 3.59 49.01, 1.34 42.74 C-0.91 36.47, 0.2 27.46, 2.43 21.19 C4.67 14.93, 8.7 8.59, 14.73 5.15 C20.76 1.71, 34.53 1.23, 38.62 0.56 C42.72 -0.11, 39.65 0.46, 39.33 1.13" stroke="#8cd000" stroke-width="2.5" fill="none" stroke-dasharray="8 10"></path></g><g stroke-linecap="round" transform="translate(185.46406642506508 72.01226995731643) rotate(0 8.987909047423727 9.35476247793082)"><path d="M10.6 0.94 C12.33 1.15, 13.34 1.85, 14.47 3.1 C15.6 4.35, 17.1 6.59, 17.38 8.44 C17.66 10.29, 17.07 12.66, 16.18 14.2 C15.29 15.74, 14.04 17.21, 12.06 17.66 C10.08 18.12, 6.27 17.52, 4.29 16.91 C2.31 16.31, 0.91 15.79, 0.17 14.03 C-0.57 12.27, -0.86 8.38, -0.16 6.37 C0.53 4.36, 2.52 3.07, 4.36 1.97 C6.2 0.86, 9.69 0.11, 10.87 -0.26 C12.06 -0.63, 11.35 -0.45, 11.47 -0.24" stroke="#8cd000" stroke-width="2.5" fill="none" stroke-dasharray="8 10"></path></g><g stroke-linecap="round"><g transform="translate(176.65958409289533 108.25256157175365) rotate(0 18.64023785980703 -2.163047016645905)"><path d="M0.35 0.23 C3.48 -1.64, 11.34 -12.11, 17.61 -12.03 C23.88 -11.95, 37.96 -2.58, 37.96 0.71 C37.96 4, 24.05 7.86, 17.6 7.7 C11.16 7.55, 2.28 1.19, -0.68 -0.21" stroke="#8cd000" stroke-width="2.5" fill="none" stroke-dasharray="8 10"></path></g></g><mask></mask><g stroke-linecap="round" transform="translate(142.97537721373578 212.9193589914716) rotate(0 31.91624845411684 31.73282173886338)"><path d="M17.81 2.78 C23.6 -0.34, 33.36 -0.24, 39.97 1.42 C46.58 3.08, 53.47 7.13, 57.48 12.73 C61.49 18.33, 64.51 28.19, 64.03 35.02 C63.55 41.86, 59.59 49.05, 54.61 53.73 C49.64 58.4, 40.95 62.28, 34.19 63.07 C27.42 63.87, 19.58 62.39, 14.01 58.5 C8.44 54.62, 2.72 46.55, 0.76 39.75 C-1.19 32.94, -1.7 24.08, 2.29 17.68 C6.28 11.29, 19.67 4.35, 24.73 1.36 C29.79 -1.63, 32.35 -0.75, 32.63 -0.24 M34.75 1.27 C41.29 1.2, 49.92 4.15, 54.61 8.47 C59.31 12.8, 62.42 20.53, 62.94 27.21 C63.46 33.88, 61.58 42.53, 57.76 48.54 C53.93 54.55, 46.55 61.42, 40.01 63.25 C33.47 65.08, 24.9 62.68, 18.53 59.53 C12.16 56.39, 4.49 50.25, 1.79 44.39 C-0.92 38.53, 0.29 30.79, 2.28 24.39 C4.28 17.98, 8.33 10.23, 13.75 5.96 C19.17 1.69, 31.21 -0.42, 34.81 -1.22 C38.4 -2.01, 35.41 0.64, 35.34 1.18" stroke="#8cd000" stroke-width="2" fill="none"></path></g><g stroke-linecap="round" transform="translate(164.98658304416153 223.63630648194209) rotate(0 8.987909047423727 9.35476247793082)"><path d="M11.03 0.64 C12.84 0.9, 14.52 1.46, 15.73 3.12 C16.93 4.79, 18.3 8.56, 18.27 10.62 C18.23 12.67, 17.02 14.17, 15.53 15.47 C14.04 16.77, 11.21 18, 9.34 18.4 C7.47 18.79, 5.86 18.96, 4.3 17.84 C2.74 16.72, 0.7 13.82, 0 11.65 C-0.7 9.49, -0.72 6.53, 0.11 4.83 C0.94 3.14, 2.89 2.35, 4.99 1.47 C7.09 0.59, 11.39 -0.4, 12.7 -0.42 C14.02 -0.44, 13.07 1.01, 12.89 1.33 M10.46 -0.45 C12.09 -0.77, 13.63 0.23, 14.78 1.6 C15.94 2.97, 17.27 5.37, 17.41 7.76 C17.54 10.15, 16.72 14.32, 15.62 15.91 C14.51 17.5, 12.78 17.2, 10.78 17.31 C8.77 17.42, 5.03 17.21, 3.58 16.57 C2.12 15.94, 2.5 15.17, 2.05 13.52 C1.6 11.87, 0.45 8.87, 0.87 6.66 C1.29 4.44, 2.87 1.27, 4.58 0.24 C6.29 -0.78, 10.18 0.73, 11.15 0.53 C12.11 0.32, 10.66 -1.29, 10.37 -0.98" stroke="#8cd000" stroke-width="2" fill="none"></path></g><g stroke-linecap="round"><g transform="translate(156.18210071199178 259.8765980963793) rotate(0 18.401567140616635 -1.33170319230166)"><path d="M0.63 -0.82 C3.76 -2.63, 11.64 -11.65, 17.78 -11.7 C23.91 -11.75, 37.45 -4.35, 37.44 -1.11 C37.42 2.13, 23.83 7.51, 17.68 7.73 C11.53 7.95, 3.59 1.59, 0.55 0.22 M-0.5 1.37 C2.55 -0.19, 10.49 -10.08, 16.72 -10.34 C22.95 -10.59, 36.76 -3.41, 36.87 -0.18 C36.99 3.05, 23.64 8.88, 17.39 9.03 C11.14 9.18, 2.18 1.92, -0.63 0.72" stroke="#8cd000" stroke-width="2" fill="none"></path></g></g><mask></mask><g stroke-linecap="round" transform="translate(10 13.302954389636795) rotate(0 132.4321839977506 163.83337723020975)"><path d="M196.25 19.38 C208.75 24.84, 219.69 37.34, 228.8 49.88 C237.92 62.43, 244.94 79.33, 250.96 94.64 C256.98 109.94, 263.22 124.85, 264.9 141.7 C266.59 158.54, 264.04 178.9, 261.07 195.71 C258.1 212.52, 253.5 227.83, 247.07 242.54 C240.63 257.26, 232.39 272.68, 222.46 284 C212.53 295.31, 199.63 303.2, 187.48 310.42 C175.33 317.64, 162.84 325.08, 149.57 327.31 C136.3 329.53, 121.52 327.17, 107.87 323.75 C94.21 320.33, 79.5 314.49, 67.65 306.78 C55.79 299.08, 46.02 289.78, 36.74 277.52 C27.45 265.26, 18.14 248.94, 11.95 233.2 C5.75 217.46, 1.23 199.58, -0.43 183.08 C-2.09 166.58, -1.14 150.85, 1.98 134.18 C5.11 117.51, 11.44 97.84, 18.34 83.04 C25.24 68.24, 33.7 56.58, 43.39 45.39 C53.07 34.2, 64.27 23.14, 76.44 15.9 C88.61 8.65, 102.65 4, 116.4 1.93 C130.15 -0.13, 142.78 -1.79, 158.94 3.52 C175.09 8.83, 202.16 25.38, 213.31 33.79 C224.47 42.2, 227.35 51.8, 225.87 53.98 M210.36 31.65 C222.45 39.89, 235.91 57.77, 244.26 72.05 C252.6 86.34, 256.83 101.78, 260.44 117.38 C264.05 132.99, 266.07 148.63, 265.91 165.67 C265.75 182.7, 264.11 203.66, 259.49 219.59 C254.87 235.52, 247.04 247.55, 238.18 261.24 C229.32 274.94, 217.74 291.97, 206.34 301.77 C194.95 311.57, 183.06 315.31, 169.81 320.06 C156.57 324.82, 140.81 330.25, 126.88 330.3 C112.95 330.35, 98.74 326.22, 86.23 320.36 C73.71 314.51, 62.38 305.77, 51.79 295.16 C41.2 284.55, 29.96 270.71, 22.68 256.7 C15.39 242.7, 12.31 227.15, 8.08 211.13 C3.85 195.1, -2.16 177.43, -2.7 160.54 C-3.24 143.66, -0.38 125.86, 4.85 109.81 C10.07 93.77, 19.56 77.49, 28.67 64.27 C37.78 51.05, 48.72 39.86, 59.51 30.48 C70.3 21.1, 80.78 12.7, 93.39 8.01 C106 3.31, 121.53 1.85, 135.15 2.3 C148.77 2.74, 162.52 5.14, 175.12 10.69 C187.73 16.24, 204.75 31.35, 210.78 35.59 C216.81 39.83, 212.2 34.69, 211.31 36.13" stroke="#8cd000" stroke-width="1" fill="none"></path></g><g stroke-linecap="round" transform="translate(372.55470284782814 9.999415953998863) rotate(0.27602471220978975 132.4321839977506 159.9670698549382)"><path d="M66.49 19.77 C76.35 10.02, 90.83 7.49, 104.39 4.39 C117.94 1.29, 134.29 -0.41, 147.82 1.17 C161.35 2.76, 173.25 6.92, 185.57 13.89 C197.89 20.86, 211.51 31.98, 221.73 42.97 C231.95 53.96, 239.97 65.77, 246.89 79.81 C253.82 93.86, 260.46 110.87, 263.29 127.25 C266.12 143.63, 265.55 161.34, 263.87 178.1 C262.19 194.86, 258.8 212.64, 253.23 227.82 C247.66 242.99, 239.69 256.98, 230.46 269.14 C221.22 281.3, 209.67 292.63, 197.82 300.76 C185.98 308.88, 172.77 314.55, 159.39 317.89 C146 321.22, 130.86 322.92, 117.49 320.77 C104.13 318.63, 91.34 312.17, 79.22 305.01 C67.09 297.85, 54.98 288.64, 44.76 277.8 C34.55 266.96, 24.96 254.61, 17.92 239.96 C10.88 225.3, 5.34 206.31, 2.53 189.87 C-0.28 173.43, -0.4 157.09, 1.04 141.3 C2.49 125.5, 5.24 109.82, 11.21 95.1 C17.19 80.38, 22.89 67.57, 36.88 52.98 C50.87 38.38, 80.66 15.57, 95.15 7.53 C109.65 -0.51, 123.62 2.29, 123.85 4.72 M90.76 7.65 C102.86 0.35, 119.41 2.43, 132.27 2.69 C145.13 2.95, 155.78 5.33, 167.94 9.22 C180.11 13.11, 193.57 16.79, 205.27 26.03 C216.96 35.28, 229.6 50.87, 238.11 64.68 C246.63 78.49, 251.97 93.82, 256.38 108.88 C260.79 123.95, 263.76 138.54, 264.56 155.07 C265.37 171.6, 265.42 192.28, 261.21 208.05 C257 223.81, 247.26 236.25, 239.29 249.65 C231.33 263.06, 223.64 278.34, 213.43 288.49 C203.21 298.63, 191.2 304.82, 177.98 310.53 C164.76 316.24, 147.82 321.92, 134.08 322.75 C120.35 323.57, 108.6 320.31, 95.56 315.49 C82.51 310.67, 66.79 303.46, 55.81 293.82 C44.84 284.19, 37.6 270.85, 29.72 257.7 C21.84 244.55, 13.18 231.03, 8.55 214.93 C3.93 198.83, 2.55 177.53, 1.97 161.1 C1.4 144.67, 1.65 131.68, 5.12 116.36 C8.6 101.04, 14.52 83.39, 22.83 69.17 C31.13 54.95, 43.62 40.85, 54.95 31.05 C66.29 21.24, 84.83 13.33, 90.83 10.34 C96.83 7.35, 90.83 11.08, 90.96 13.11" stroke="#8cd000" stroke-width="1" fill="none"></path></g><g stroke-linecap="round" transform="translate(413.4628906082851 120.93175742264303) rotate(0 32.05258897224712 32.05258897224713)"><path d="M34.84 -0.66 C41.01 -0.69, 48.41 3.62, 53.22 7.69 C58.04 11.75, 62.18 17.84, 63.72 23.71 C65.27 29.59, 64.99 37.16, 62.49 42.95 C59.98 48.73, 53.98 54.97, 48.69 58.43 C43.4 61.9, 36.88 64.1, 30.74 63.73 C24.6 63.36, 16.7 60.18, 11.85 56.21 C7 52.24, 3.13 46.02, 1.64 39.89 C0.14 33.76, 0.76 25.11, 2.86 19.44 C4.96 13.76, 7.66 8.7, 14.25 5.83 C20.84 2.97, 36.49 2.17, 42.4 2.23 C48.31 2.29, 49.74 5.88, 49.7 6.2" stroke="#8cd000" stroke-width="1.5" fill="none" stroke-dasharray="1.5 7"></path></g><g transform="translate(439.23087667811205 142.81974337802905) rotate(0 6.119999885559082 10)"><text x="6.119999885559082" y="0" font-family="Virgil, Segoe UI Emoji" font-size="16px" fill="#8cd000" text-anchor="middle" style="white-space: pre;" direction="ltr" dominant-baseline="text-before-edge">8</text></g><g stroke-linecap="round" transform="translate(528.5608237358995 68.48206637714773) rotate(0 32.05258897224712 32.052588972247136)"><path d="M27.56 -0.07 C33.34 -1.42, 40.37 0.67, 45.96 3.72 C51.55 6.76, 58.15 12.72, 61.1 18.21 C64.05 23.69, 64.92 30.45, 63.67 36.61 C62.42 42.77, 58.06 50.59, 53.59 55.17 C49.12 59.75, 42.85 63.07, 36.84 64.08 C30.84 65.09, 23.06 64.32, 17.56 61.21 C12.06 58.1, 6.71 51.08, 3.83 45.42 C0.96 39.76, -0.81 33.34, 0.29 27.26 C1.39 21.18, 5.44 13.43, 10.45 8.93 C15.46 4.43, 26.61 1.63, 30.33 0.28 C34.05 -1.08, 32.75 0.36, 32.78 0.79" stroke="#8cd000" stroke-width="1.5" fill="none" stroke-dasharray="8 9"></path></g><g transform="translate(554.3288098057265 90.37005233253376) rotate(0 6.119999885559082 10)"><text x="6.119999885559082" y="0" font-family="Virgil, Segoe UI Emoji" font-size="16px" fill="#8cd000" text-anchor="middle" style="white-space: pre;" direction="ltr" dominant-baseline="text-before-edge">8</text></g><g stroke-linecap="round" transform="translate(510.10630281248496 214.17565261463466) rotate(0 32.05258897224712 32.05258897224712)"><path d="M31.19 -0.81 C37.16 -1.55, 44.27 0.78, 49.41 4.48 C54.55 8.17, 59.68 15.26, 62.01 21.35 C64.34 27.45, 64.93 35.05, 63.38 41.05 C61.83 47.05, 57.68 53.43, 52.73 57.35 C47.77 61.26, 39.94 64.44, 33.64 64.55 C27.34 64.66, 20.31 61.39, 14.91 58 C9.51 54.62, 3.58 49.85, 1.25 44.23 C-1.09 38.6, -0.77 30.54, 0.89 24.23 C2.55 17.93, 5.55 10.49, 11.19 6.41 C16.84 2.33, 30.36 0.75, 34.75 -0.27 C39.14 -1.29, 37.58 -0.32, 37.52 0.27 M30.35 0.04 C36.17 -0.78, 44.38 2.53, 49.69 5.96 C55 9.39, 60.08 15.08, 62.23 20.61 C64.38 26.15, 64.04 33.3, 62.6 39.17 C61.15 45.05, 58.01 51.65, 53.55 55.87 C49.09 60.09, 42.13 63.82, 35.83 64.5 C29.53 65.18, 21.53 63.55, 15.75 59.97 C9.97 56.38, 3.49 48.9, 1.18 42.99 C-1.14 37.09, 0.19 30.68, 1.86 24.54 C3.54 18.41, 6.49 10.23, 11.23 6.21 C15.97 2.19, 27.05 1.37, 30.29 0.43 C33.52 -0.5, 30.61 0.02, 30.63 0.58" stroke="#8cd000" stroke-width="1" fill="none"></path></g><g transform="translate(536.5462888136474 236.0636385700207) rotate(0 5.447999954223633 10)"><text x="5.447999954223633" y="0" font-family="Virgil, Segoe UI Emoji" font-size="16px" fill="#8cd000" text-anchor="middle" style="white-space: pre;" direction="ltr" dominant-baseline="text-before-edge">3</text></g><g transform="translate(153.25292721335336 279.25212113404547) rotate(0 24.671998977661133 10)"><text x="24.671998977661133" y="0" font-family="Virgil, Segoe UI Emoji" font-size="16px" fill="#8cd000" text-anchor="middle" style="white-space: pre;" direction="ltr" dominant-baseline="text-before-edge">Chemie</text></g><g transform="translate(157.45896729378455 358.4123029897467) rotate(0 178.0869903564453 16.07056609322862)"><text x="178.0869903564453" y="0" font-family="Virgil, Segoe UI Emoji" font-size="25.712905749165795px" fill="#8cd000" text-anchor="middle" style="white-space: pre;" direction="ltr" dominant-baseline="text-before-edge">Messung des Lieblingsfaches</text></g><g transform="translate(153.92767629830314 129.38627834605808) rotate(0 44.87999725341797 10)"><text x="44.87999725341797" y="0" font-family="Virgil, Segoe UI Emoji" font-size="16px" fill="#8cd000" text-anchor="middle" style="white-space: pre;" direction="ltr" dominant-baseline="text-before-edge">Mathematik</text></g><g transform="translate(49.02829420731223 191.06322985326085) rotate(0 44.87999725341797 10)"><text x="44.87999725341797" y="0" font-family="Virgil, Segoe UI Emoji" font-size="16px" fill="#8cd000" text-anchor="middle" style="white-space: pre;" direction="ltr" dominant-baseline="text-before-edge">Mathematik</text></g><g stroke-linecap="round"><g transform="translate(164.81250342964063 63.13996821510656) rotate(0 -39.86657334946324 26.86420265964418)"><path d="M0.32 -0.98 C-6.96 1.94, -31.46 8.42, -44.75 17.7 C-58.04 26.98, -73.7 48.59, -79.41 54.7 M-0.97 1.13 C-8.27 3.64, -32.3 7.09, -45.48 15.7 C-58.66 24.3, -74.56 46.11, -80.05 52.78" stroke="#8cd000" stroke-width="1" fill="none"></path></g></g><mask></mask><g stroke-linecap="round"><g transform="translate(272.8549770658233 121.53760799449124) rotate(143.4250174933422 -47.02700302694291 45.28022651956536)"><path d="M0.34 0.41 C-12.62 7.91, -63.07 28.89, -78.73 43.99 C-94.39 59.08, -91.1 83.39, -93.6 90.98 M-0.94 -0.42 C-13.93 6.84, -63.82 27.51, -79.4 42.4 C-94.97 57.28, -92.02 80.94, -94.4 88.9" stroke="#8cd000" stroke-width="1" fill="none"></path></g></g><mask></mask><g stroke-linecap="round"><g transform="translate(134.21685031976835 254.4842114736727) rotate(0 -25.795218177567676 -20.035935427532507)"><path d="M-1.07 0.7 C-6.12 -2.04, -22.47 -10.22, -30.95 -16.79 C-39.43 -23.36, -48.23 -35.1, -51.93 -38.74 M0.57 0.02 C-4.53 -3.08, -22.79 -12, -31.57 -18.8 C-40.36 -25.6, -48.59 -37.1, -52.16 -40.77" stroke="#8cd000" stroke-width="1" fill="none"></path></g></g><mask></mask><g transform="translate(103.05600492672033 67.02513051477287) rotate(0 4.935999870300293 10)"><text x="4.935999870300293" y="0" font-family="Virgil, Segoe UI Emoji" font-size="16px" fill="#8cd000" text-anchor="middle" style="white-space: pre;" direction="ltr" dominant-baseline="text-before-edge">=</text></g><g transform="translate(242.71505527340673 179.77014101309481) rotate(0 4.390625 10)"><text x="4.390625" y="0" font-family="Virgil, Segoe UI Emoji" font-size="16px" fill="#8cd000" text-anchor="middle" style="white-space: pre;" direction="ltr" dominant-baseline="text-before-edge">≠</text></g><g transform="translate(92.07571930422273 232.62951824468024) rotate(0 4.390625 10)"><text x="4.390625" y="0" font-family="Virgil, Segoe UI Emoji" font-size="16px" fill="#8cd000" text-anchor="middle" style="white-space: pre;" direction="ltr" dominant-baseline="text-before-edge">≠</text></g><g stroke-linecap="round"><g transform="translate(525.391548329653 62.52233677194007) rotate(0 -40.455359013259795 27.13799810249544)"><path d="M0.5 0.67 C-7.08 3.78, -32.82 9.33, -46.28 18.27 C-59.75 27.21, -74.72 48.37, -80.3 54.31 M-0.7 -0.03 C-7.86 2.78, -30.71 7.86, -44.16 16.56 C-57.61 25.26, -75.51 45.78, -81.41 52.17" stroke="#8cd000" stroke-width="1" fill="none"></path></g></g><mask></mask><g transform="translate(463.6350498267327 66.40749907160637) rotate(0 4.935999870300293 10)"><text x="4.935999870300293" y="0" font-family="Virgil, Segoe UI Emoji" font-size="16px" fill="#8cd000" text-anchor="middle" style="white-space: pre;" direction="ltr" dominant-baseline="text-before-edge">=</text></g><g stroke-linecap="round"><g transform="translate(497.1861320050932 242.95215785402326) rotate(0 -26.51217959087296 -19.455054832086873)"><path d="M-0.24 -1.1 C-5.33 -4.02, -22.36 -10.79, -31.04 -17.25 C-39.73 -23.7, -48.59 -36.29, -52.34 -39.85 M-1.82 0.94 C-6.99 -1.83, -23.22 -9.21, -31.72 -15.84 C-40.21 -22.46, -49.15 -34.65, -52.79 -38.8" stroke="#8cd000" stroke-width="1" fill="none"></path></g></g><mask></mask><g transform="translate(455.04500098954736 221.0974646250308) rotate(0 4.390625 10)"><text x="4.390625" y="0" font-family="Virgil, Segoe UI Emoji" font-size="16px" fill="#8cd000" text-anchor="middle" style="white-space: pre;" direction="ltr" dominant-baseline="text-before-edge">≠</text></g><g stroke-linecap="round"><g transform="translate(636.73144981012 121.04251849990061) rotate(143.4250174933422 -46.961714663145244 46.03439107589543)"><path d="M0.77 0.71 C-12.54 7.9, -63.78 28.72, -79.55 43.7 C-95.31 58.69, -91.42 82.74, -93.8 90.63 M-0.28 0.04 C-13.8 6.83, -64.91 26.63, -80.64 41.96 C-96.38 57.29, -92.51 84.22, -94.7 92.02" stroke="#8cd000" stroke-width="1" fill="none"></path></g></g><mask></mask><g transform="translate(606.5915280177037 179.27505151850414) rotate(0 4.390625 10)"><text x="4.390625" y="0" font-family="Virgil, Segoe UI Emoji" font-size="16px" fill="#8cd000" text-anchor="middle" style="white-space: pre;" direction="ltr" dominant-baseline="text-before-edge">≠</text></g></svg>