<svg version="1.1" xmlns="http://www.w3.org/2000/svg" viewBox="0 0 649 645" width="1947" height="1935">
  <!-- svg-source:excalidraw -->
  
  <defs>
    <style class="style-fonts">
      @font-face {
        font-family: "Virgil";
        src: url("https://excalidraw.com/Virgil.woff2");
      }
      @font-face {
        font-family: "Cascadia";
        src: url("https://excalidraw.com/Cascadia.woff2");
      }
      @font-face {
        font-family: "Assistant";
        src: url("https://excalidraw.com/Assistant-Regular.woff2");
      }
    </style>
    
  </defs>
  <rect x="0" y="0" width="649" height="645" fill="#ffffff"></rect><g stroke-linecap="round" transform="translate(64.109375 10) rotate(0 254.890625 22)"><path d="M0 0 C194.72 -0.04, 388.72 -0.56, 509.78 0 M0 0 C127.68 1.18, 254.87 0.68, 509.78 0 M509.78 0 C510.47 17.74, 510.29 33.88, 509.78 44 M509.78 0 C510.65 8.88, 510.36 18.52, 509.78 44 M509.78 44 C391.7 43.59, 273.8 43.73, 0 44 M509.78 44 C331.72 42.39, 153.14 42.33, 0 44 M0 44 C-0.02 33.08, -0.31 27.44, 0 0 M0 44 C-1.1 31.56, -0.38 20.25, 0 0" stroke="#8cd000" stroke-width="2" fill="none"></path></g><g stroke-linecap="round" transform="translate(30.859375 90) rotate(0 288.140625 22)"><path d="M0 0 C172.02 -0.38, 343.57 0.63, 576.28 0 M0 0 C150.18 -2.34, 301.33 -2.47, 576.28 0 M576.28 0 C577.28 10.35, 574.62 21.88, 576.28 44 M576.28 0 C577.29 16.89, 576 33.21, 576.28 44 M576.28 44 C412.28 43.7, 247.57 43.96, 0 44 M576.28 44 C453.47 45.08, 330.7 45.13, 0 44 M0 44 C-0.17 28.81, -0.78 10.62, 0 0 M0 44 C0.23 31.63, -0.15 20.41, 0 0" stroke="#8cd000" stroke-width="2" fill="none"></path></g><g stroke-linecap="round" transform="translate(179.6015625 166) rotate(0 139.3984375 22)"><path d="M0 0 C80.29 2.39, 161.51 1.95, 278.8 0 M0 0 C111.29 0.11, 220.77 0.95, 278.8 0 M278.8 0 C277.09 14.04, 280.48 30.24, 278.8 44 M278.8 0 C278.39 12.5, 278.92 24.92, 278.8 44 M278.8 44 C199.82 44.6, 117.99 44.67, 0 44 M278.8 44 C182.76 44.88, 88.78 44.64, 0 44 M0 44 C-0.72 35.41, -0.63 23.06, 0 0 M0 44 C-0.47 34.56, 0.91 25.28, 0 0" stroke="#8cd000" stroke-width="2" fill="none"></path></g><g stroke-linecap="round" transform="translate(185.8125 268) rotate(0 132.1875 22)"><path d="M0 0 C59.11 -0.72, 120.97 -2.3, 264.38 0 M0 0 C71.76 1.67, 144.49 1.6, 264.38 0 M264.38 0 C265.48 13.52, 263.57 24.64, 264.38 44 M264.38 0 C263.93 15.04, 263.94 30.31, 264.38 44 M264.38 44 C182.96 45.37, 104.98 43.97, 0 44 M264.38 44 C178.64 44.89, 90.82 44.77, 0 44 M0 44 C-0.5 24.64, -1.6 8.49, 0 0 M0 44 C1.08 33.5, -0.64 23.5, 0 0" stroke="#8cd000" stroke-width="2" fill="none"></path></g><g stroke-linecap="round" transform="translate(408.43359375 342) rotate(0 107.4765625 22)"><path d="M0 0 C77.4 -1.78, 150.94 1.18, 214.95 0 M0 0 C51.42 -0.56, 102.14 -1.72, 214.95 0 M214.95 0 C214.9 14.04, 216.02 24.27, 214.95 44 M214.95 0 C214.75 14.6, 214.92 28.3, 214.95 44 M214.95 44 C143.57 43.89, 71.18 43.19, 0 44 M214.95 44 C141.29 44.08, 69.93 43.82, 0 44 M0 44 C-1.62 28.28, -1.11 12.14, 0 0 M0 44 C-1.25 31.69, -0.35 18.01, 0 0" stroke="#8cd000" stroke-width="2" fill="none"></path></g><g stroke-linecap="round" transform="translate(191.8203125 416) rotate(0 127.1796875 22)"><path d="M0 0 C81.82 3.07, 163.52 0.77, 254.36 0 M0 0 C88.23 -1.56, 176.93 -0.19, 254.36 0 M254.36 0 C255 15.82, 254.59 34.08, 254.36 44 M254.36 0 C254.32 14.72, 254.65 27.57, 254.36 44 M254.36 44 C168.39 41.55, 82.18 44.46, 0 44 M254.36 44 C176.88 43.55, 98.19 43.59, 0 44 M0 44 C-0.87 33.62, 0.15 27.06, 0 0 M0 44 C0.41 30.47, 0.43 18.38, 0 0" stroke="#8cd000" stroke-width="2" fill="none"></path></g><g stroke-linecap="round" transform="translate(52.0546875 342) rotate(0 96.9453125 22)"><path d="M0 0 C42.13 -2.78, 87.69 -1.34, 193.89 0 M0 0 C65.67 2.57, 132.43 1.62, 193.89 0 M193.89 0 C194.37 15.62, 194.52 31.53, 193.89 44 M193.89 0 C194.26 15.41, 194.3 32.98, 193.89 44 M193.89 44 C146 44.08, 96.68 40.63, 0 44 M193.89 44 C137.58 42.94, 79.4 42.4, 0 44 M0 44 C0.04 33.19, 0.13 17.26, 0 0 M0 44 C0.04 29.35, 0.76 15.21, 0 0" stroke="#8cd000" stroke-width="2" fill="none"></path></g><g stroke-linecap="round" transform="translate(112.3359375 503) rotate(0 206.6640625 22)"><path d="M0 0 C162.84 1.36, 325.05 0.74, 413.33 0 M0 0 C85.75 -1.81, 170.86 -1.5, 413.33 0 M413.33 0 C413.86 9.93, 414.8 20.47, 413.33 44 M413.33 0 C413.88 15.8, 413 31.04, 413.33 44 M413.33 44 C326.27 45.15, 238.97 47.13, 0 44 M413.33 44 C304.27 42.77, 196.08 42.91, 0 44 M0 44 C-0.09 31.41, 0.77 22.36, 0 0 M0 44 C0.75 34.44, -0.95 23.23, 0 0" stroke="#8cd000" stroke-width="2" fill="none"></path></g><g stroke-linecap="round" transform="translate(179.84375 591) rotate(0 140.15625 22)"><path d="M0 0 C70.85 -1.01, 139.07 -0.63, 280.31 0 M0 0 C105.76 0.7, 210.06 0.54, 280.31 0 M280.31 0 C281.81 12.62, 281.41 25.84, 280.31 44 M280.31 0 C280 9.63, 279.6 19.12, 280.31 44 M280.31 44 C170.69 43.76, 60.72 43, 0 44 M280.31 44 C205.42 41.63, 130.36 42.02, 0 44 M0 44 C0.75 27.14, -1.27 10.3, 0 0 M0 44 C-1.27 30.11, -0.98 16.87, 0 0" stroke="#8cd000" stroke-width="2" fill="none"></path></g><g stroke-linecap="round"><g transform="translate(318.892744007234 55) rotate(0 0 17)"><path d="M-0.19 -0.52 C-0.22 5.18, -0.16 28.68, -0.05 34.42 M0.72 0.41 C0.6 5.94, -0.45 27.99, -0.5 33.66" stroke="#8cd000" stroke-width="2" fill="none"></path></g><g transform="translate(318.892744007234 55) rotate(0 0 17)"><path d="M0.43 33.5 L-7.33 19.76 L5.75 19.64 L-0.38 32.77" stroke="none" stroke-width="0" fill="#8cd000" fill-rule="evenodd"></path><path d="M-0.5 33.66 C-3.15 29.14, -3.79 25.43, -6.42 19.88 M-0.5 33.66 C-2.46 29.87, -3.92 26.03, -6.42 19.88 M-6.42 19.88 C-2.48 20.22, 0.27 20.35, 6.25 20.27 M-6.42 19.88 C-2.37 20.12, 2.53 20.15, 6.25 20.27 M6.25 20.27 C4.49 23.6, 3.05 25.47, -0.5 33.66 M6.25 20.27 C4.61 23.04, 3.69 25.9, -0.5 33.66 M-0.5 33.66 C-0.5 33.66, -0.5 33.66, -0.5 33.66 M-0.5 33.66 C-0.5 33.66, -0.5 33.66, -0.5 33.66" stroke="#8cd000" stroke-width="2" fill="none"></path></g></g><mask></mask><g stroke-linecap="round"><g transform="translate(319.1194290361984 135) rotate(0 0 15)"><path d="M-0.05 0.42 C0.07 5.48, 0.43 24.93, 0.5 29.89 M-0.74 0.15 C-0.64 5.35, 0.17 25.69, 0.32 30.54" stroke="#8cd000" stroke-width="2" fill="none"></path></g><g transform="translate(319.1194290361984 135) rotate(0 0 15)"><path d="M-0.59 30.42 L-6.99 16.55 L6.3 15.83 L0.29 31.25" stroke="none" stroke-width="0" fill="#8cd000" fill-rule="evenodd"></path><path d="M0.32 30.54 C-0.86 27.66, -3.39 23.89, -6.5 17.18 M0.32 30.54 C-1.98 26.13, -4.28 21.81, -6.5 17.18 M-6.5 17.18 C-3.22 17.27, 1.44 16.57, 6.17 16.73 M-6.5 17.18 C-2.07 17.03, 1.53 16.83, 6.17 16.73 M6.17 16.73 C3.56 21.6, 0.81 27.66, 0.32 30.54 M6.17 16.73 C5.06 19.97, 3.03 23.4, 0.32 30.54 M0.32 30.54 C0.32 30.54, 0.32 30.54, 0.32 30.54 M0.32 30.54 C0.32 30.54, 0.32 30.54, 0.32 30.54" stroke="#8cd000" stroke-width="2" fill="none"></path></g></g><mask></mask><g stroke-linecap="round"><g transform="translate(315.6225151058047 212.00000000000023) rotate(0 1.183175337313628 26.999999999999886)"><path d="M1.09 -0.23 C1.62 8.69, 3.03 45.37, 3.1 54.44 M0.2 -1.4 C0.65 7.07, 1.91 43.04, 2.54 52.55" stroke="#8cd000" stroke-width="2" fill="none"></path></g><g transform="translate(315.6225151058047 212.00000000000023) rotate(0 1.183175337313628 26.999999999999886)"><path d="M0.1 -1.49 L8.23 11.3 L-4.76 15.03 L-0.25 0.53" stroke="none" stroke-width="0" fill="#8cd000" fill-rule="evenodd"></path><path d="M1.09 -0.23 C2.9 4.51, 5.75 6.45, 7.97 13.09 M1.09 -0.23 C3.14 4.49, 5.44 8.54, 7.97 13.09 M7.97 13.09 C4.25 12.7, -0.19 12.36, -4.7 13.61 M7.97 13.09 C3.16 13.23, 0.01 13.22, -4.7 13.61 M-4.7 13.61 C-3.95 8.57, -1.55 3.17, 1.09 -0.23 M-4.7 13.61 C-3.81 9.9, -1.47 5.15, 1.09 -0.23 M1.09 -0.23 C1.09 -0.23, 1.09 -0.23, 1.09 -0.23 M1.09 -0.23 C1.09 -0.23, 1.09 -0.23, 1.09 -0.23" stroke="#8cd000" stroke-width="2" fill="none"></path></g><g transform="translate(315.6225151058047 212.00000000000023) rotate(0 1.183175337313628 26.999999999999886)"><path d="M1.55 51.28 L-4.2 37.49 L8.14 40.08 L1.21 53.31" stroke="none" stroke-width="0" fill="#8cd000" fill-rule="evenodd"></path><path d="M2.54 52.55 C0.11 49.67, -1.09 43.86, -4.46 39.28 M2.54 52.55 C0.25 48.9, -1.84 44.55, -4.46 39.28 M-4.46 39.28 C0.33 38.4, 4.39 37.68, 8.21 38.66 M-4.46 39.28 C-0.69 39.01, 4.76 38.61, 8.21 38.66 M8.21 38.66 C4.86 43.22, 3.25 47.52, 2.54 52.55 M8.21 38.66 C6.03 42.92, 5.08 46.16, 2.54 52.55 M2.54 52.55 C2.54 52.55, 2.54 52.55, 2.54 52.55 M2.54 52.55 C2.54 52.55, 2.54 52.55, 2.54 52.55" stroke="#8cd000" stroke-width="2" fill="none"></path></g></g><mask></mask><g stroke-linecap="round"><g transform="translate(457.9516084835037 387) rotate(0 -35.9720766192126 14)"><path d="M-0.82 0.19 C-12.96 4.83, -60.23 23.5, -72.12 28.28 M0.96 -0.75 C-11.42 3.47, -60.84 21.69, -73.16 26.3" stroke="#8cd000" stroke-width="2" fill="none"></path></g><g transform="translate(457.9516084835037 387) rotate(0 -35.9720766192126 14)"><path d="M-73.22 27.72 L-63.95 16.39 L-58.02 28.77 L-73.34 26.37" stroke="none" stroke-width="0" fill="#8cd000" fill-rule="evenodd"></path><path d="M-73.16 26.3 C-69.15 22.3, -65.23 18.45, -62.61 15.63 M-73.16 26.3 C-68.99 21.65, -65.06 18.67, -62.61 15.63 M-62.61 15.63 C-60.98 19.81, -60.27 20.6, -58.21 27.52 M-62.61 15.63 C-60.89 18.92, -60.47 22.06, -58.21 27.52 M-58.21 27.52 C-62.62 28.35, -66.8 25.43, -73.16 26.3 M-58.21 27.52 C-63.2 27.12, -67.68 27.19, -73.16 26.3 M-73.16 26.3 C-73.16 26.3, -73.16 26.3, -73.16 26.3 M-73.16 26.3 C-73.16 26.3, -73.16 26.3, -73.16 26.3" stroke="#8cd000" stroke-width="2" fill="none"></path></g></g><mask></mask><g stroke-linecap="round"><g transform="translate(295.9452266340677 415) rotate(0 -33.60772914855232 -14)"><path d="M-0.17 0.28 C-11.27 -4.28, -56.22 -22.55, -67.38 -27.16 M-1.72 -0.62 C-12.92 -5.53, -57.39 -24.04, -68.42 -28.84" stroke="#8cd000" stroke-width="2" fill="none"></path></g><g transform="translate(295.9452266340677 415) rotate(0 -33.60772914855232 -14)"><path d="M-69.75 -28.08 L-53.25 -28.11 L-58.56 -17.63 L-67.39 -30.83" stroke="none" stroke-width="0" fill="#8cd000" fill-rule="evenodd"></path><path d="M-68.42 -28.84 C-64.59 -29.15, -60.42 -29.02, -53.43 -29.36 M-68.42 -28.84 C-62.88 -28.58, -58.31 -28.87, -53.43 -29.36 M-53.43 -29.36 C-54.33 -27.9, -55.56 -23.13, -58.38 -17.69 M-53.43 -29.36 C-55.23 -26.87, -56.08 -23.65, -58.38 -17.69 M-58.38 -17.69 C-60.95 -21.67, -62.78 -23.07, -68.42 -28.84 M-58.38 -17.69 C-60.17 -19.71, -63.81 -22.99, -68.42 -28.84 M-68.42 -28.84 C-68.42 -28.84, -68.42 -28.84, -68.42 -28.84 M-68.42 -28.84 C-68.42 -28.84, -68.42 -28.84, -68.42 -28.84" stroke="#8cd000" stroke-width="2" fill="none"></path></g></g><mask></mask><g stroke-linecap="round"><g transform="translate(318.3415301200048 463) rotate(0 0.8778383281277229 19)"><path d="M-0.08 0.38 C0.23 6.74, 1.43 32.08, 1.77 38.27 M-0.78 0.11 C-0.54 6.29, 0.93 31.15, 1.35 37.45" stroke="#8cd000" stroke-width="2" fill="none"></path></g><g transform="translate(318.3415301200048 463) rotate(0 0.8778383281277229 19)"><path d="M1.44 38.07 L-5.91 24.3 L7.35 22.49 L1.28 36.96" stroke="none" stroke-width="0" fill="#8cd000" fill-rule="evenodd"></path><path d="M1.35 37.45 C-0.19 33.7, -2.39 30.18, -5.82 24.27 M1.35 37.45 C-0.39 34.76, -2.06 32, -5.82 24.27 M-5.82 24.27 C-0.92 24.65, 3.83 24.03, 6.84 23.49 M-5.82 24.27 C-2.49 23.92, 0.77 23.87, 6.84 23.49 M6.84 23.49 C4.99 28.84, 2.13 34.22, 1.35 37.45 M6.84 23.49 C4.82 27.86, 3.21 32.45, 1.35 37.45 M1.35 37.45 C1.35 37.45, 1.35 37.45, 1.35 37.45 M1.35 37.45 C1.35 37.45, 1.35 37.45, 1.35 37.45" stroke="#8cd000" stroke-width="2" fill="none"></path></g></g><mask></mask><g stroke-linecap="round"><g transform="translate(319.25889828293384 548) rotate(0 0.2395542332191667 21)"><path d="M0.01 0.27 C0.14 7.13, 0.56 34.53, 0.67 41.52 M-0.64 -0.06 C-0.56 6.81, 0.16 35.08, 0.34 41.97" stroke="#8cd000" stroke-width="2" fill="none"></path></g><g transform="translate(319.25889828293384 548) rotate(0 0.2395542332191667 21)"><path d="M0.25 42.01 L-5.83 27.55 L6.27 27.74 L1.1 42.83" stroke="none" stroke-width="0" fill="#8cd000" fill-rule="evenodd"></path><path d="M0.34 41.97 C-1.24 38.4, -4.18 34.59, -6.34 28.55 M0.34 41.97 C-2.25 37.54, -3.86 32.83, -6.34 28.55 M-6.34 28.55 C-3.82 28.73, -1.03 27.78, 6.33 28.22 M-6.34 28.55 C-3.83 28.48, -0.71 28.42, 6.33 28.22 M6.33 28.22 C4.6 31.17, 3.92 34.64, 0.34 41.97 M6.33 28.22 C3.76 33.6, 1.7 38.43, 0.34 41.97 M0.34 41.97 C0.34 41.97, 0.34 41.97, 0.34 41.97 M0.34 41.97 C0.34 41.97, 0.34 41.97, 0.34 41.97" stroke="#8cd000" stroke-width="2" fill="none"></path></g></g><mask></mask><g transform="translate(115.6500244140625 19.5) rotate(0 203.3499755859375 12.5)"><text x="203.3499755859375" y="0" font-family="Virgil, Segoe UI Emoji" font-size="20px" fill="#8cd000" text-anchor="middle" style="white-space: pre;" direction="ltr" dominant-baseline="text-before-edge">1. Forschungsthema und Forschungsproblem</text></g><g transform="translate(75.72001647949219 99.5) rotate(0 243.2799835205078 12.5)"><text x="243.2799835205078" y="0" font-family="Virgil, Segoe UI Emoji" font-size="20px" fill="#8cd000" text-anchor="middle" style="white-space: pre;" direction="ltr" dominant-baseline="text-before-edge">2. Forschungsstand und theoretischer Hintergrund</text></g><g transform="translate(206.89999389648438 175.5) rotate(0 112.10000610351562 12.5)"><text x="112.10000610351562" y="0" font-family="Virgil, Segoe UI Emoji" font-size="20px" fill="#8cd000" text-anchor="middle" style="white-space: pre;" direction="ltr" dominant-baseline="text-before-edge">3. Untersuchungsdesign</text></g><g transform="translate(216.30998992919922 277.5) rotate(0 101.69001007080078 12.5)"><text x="101.69001007080078" y="0" font-family="Virgil, Segoe UI Emoji" font-size="20px" fill="#8cd000" text-anchor="middle" style="white-space: pre;" direction="ltr" dominant-baseline="text-before-edge">4. Stichprobenziehung</text></g><g transform="translate(431.1101531982422 351.5) rotate(0 84.80000305175781 12.5)"><text x="84.80000305175781" y="0" font-family="Virgil, Segoe UI Emoji" font-size="20px" fill="#8cd000" text-anchor="middle" style="white-space: pre;" direction="ltr" dominant-baseline="text-before-edge">5. Datenerhebung</text></g><g transform="translate(213.86998748779297 425.5) rotate(0 105.13001251220703 12.5)"><text x="105.13001251220703" y="0" font-family="Virgil, Segoe UI Emoji" font-size="20px" fill="#8cd000" text-anchor="middle" style="white-space: pre;" direction="ltr" dominant-baseline="text-before-edge">6. Datenaufbereitung</text></g><g transform="translate(69.38999938964844 351.5) rotate(0 79.61000061035156 12.5)"><text x="79.61000061035156" y="0" font-family="Virgil, Segoe UI Emoji" font-size="20px" fill="#8cd000" text-anchor="middle" style="white-space: pre;" direction="ltr" dominant-baseline="text-before-edge">7. Datenanalyse</text></g><g transform="translate(149.25999450683594 512.5) rotate(0 169.74000549316406 12.5)"><text x="169.74000549316406" y="0" font-family="Virgil, Segoe UI Emoji" font-size="20px" fill="#8cd000" text-anchor="middle" style="white-space: pre;" direction="ltr" dominant-baseline="text-before-edge">8. Hypothesen- und h Teoriebildung</text></g><g transform="translate(205.44000244140625 600.5) rotate(0 114.55999755859375 12.5)"><text x="114.55999755859375" y="0" font-family="Virgil, Segoe UI Emoji" font-size="20px" fill="#8cd000" text-anchor="middle" style="white-space: pre;" direction="ltr" dominant-baseline="text-before-edge">9. Ergebnispräsentation</text></g><g stroke-linecap="round"><g transform="translate(438.09229662942994 318.5) rotate(0 26.776696911378394 9)"><path d="M0.37 0.72 C9.5 3.66, 45.09 14.02, 53.86 17.02 M-0.89 0.05 C8.18 3.17, 44.27 15.26, 53.07 18.04" stroke="#8cd000" stroke-width="2" fill="none"></path></g><g transform="translate(438.09229662942994 318.5) rotate(0 26.776696911378394 9)"><path d="M51.35 18.76 L37.01 21.82 L41.4 7.61 L54.47 17.1" stroke="none" stroke-width="0" fill="#8cd000" fill-rule="evenodd"></path><path d="M53.07 18.04 C50.6 18.87, 45.11 18.18, 38.18 19.84 M53.07 18.04 C47.4 18.76, 42.62 19.76, 38.18 19.84 M38.18 19.84 C39.08 17.3, 40.12 13.77, 42.12 7.79 M38.18 19.84 C39.03 15.62, 40.92 11.49, 42.12 7.79 M42.12 7.79 C45.79 10.08, 46.77 14.31, 53.07 18.04 M42.12 7.79 C47.12 12.33, 50.68 16.38, 53.07 18.04 M53.07 18.04 C53.07 18.04, 53.07 18.04, 53.07 18.04 M53.07 18.04 C53.07 18.04, 53.07 18.04, 53.07 18.04" stroke="#8cd000" stroke-width="2" fill="none"></path></g></g><mask></mask><g stroke-linecap="round"><g transform="translate(166.74389229236465 336.5) rotate(0 24.449563927150052 -7.5)"><path d="M-1.06 0.62 C7.05 -1.87, 39.78 -11.49, 48 -14.14 M0.58 -0.1 C9.13 -2.99, 42.48 -13.48, 50.23 -15.81" stroke="#8cd000" stroke-width="2" fill="none"></path></g><g transform="translate(166.74389229236465 336.5) rotate(0 24.449563927150052 -7.5)"><path d="M52.14 -15.5 L40.39 -7.28 L34.82 -17.78 L51.94 -14.65" stroke="none" stroke-width="0" fill="#8cd000" fill-rule="evenodd"></path><path d="M50.23 -15.81 C48.38 -14.59, 45.99 -11.89, 39.12 -5.73 M50.23 -15.81 C47.12 -12.8, 44.16 -10.49, 39.12 -5.73 M39.12 -5.73 C38.84 -8.88, 37.39 -15.12, 35.37 -17.85 M39.12 -5.73 C37.33 -10.96, 36.69 -15.38, 35.37 -17.85 M35.37 -17.85 C38.59 -17.66, 41.34 -16.72, 50.23 -15.81 M35.37 -17.85 C37.93 -18.09, 41.06 -16.52, 50.23 -15.81 M50.23 -15.81 C50.23 -15.81, 50.23 -15.81, 50.23 -15.81 M50.23 -15.81 C50.23 -15.81, 50.23 -15.81, 50.23 -15.81" stroke="#8cd000" stroke-width="2" fill="none"></path></g></g><mask></mask><g stroke-linecap="round" transform="translate(10 242.5) rotate(0 314.5 115)"><path d="M32 0 C249.62 0.44, 465.54 -0.38, 597 0 M32 0 C192.9 -2.18, 353.16 -1.91, 597 0 M597 0 C618.26 0.17, 630.38 8.79, 629 32 M597 0 C618.89 0.02, 627.58 9.45, 629 32 M629 32 C629.16 93.3, 630.19 154.6, 629 198 M629 32 C628.71 67.55, 628 101.32, 629 198 M629 198 C628.18 219.5, 617.58 228.2, 597 230 M629 198 C628.6 219.36, 616.59 231.03, 597 230 M597 230 C427.88 227.6, 259.29 227.92, 32 230 M597 230 C400.73 231.61, 205.44 232.07, 32 230 M32 230 C9.58 228.65, 1.87 218.98, 0 198 M32 230 C9.97 228.85, 1.86 217.83, 0 198 M0 198 C1.3 154.37, 0.49 110, 0 32 M0 198 C0.47 137.86, 1.34 77.25, 0 32 M0 32 C1.23 10.87, 9.23 0.63, 32 0 M0 32 C-1.51 8.61, 9.84 -2.13, 32 0" stroke="#8cd000" stroke-width="2" fill="none"></path></g></svg>