<svg version="1.1" xmlns="http://www.w3.org/2000/svg" viewBox="0 0 826.2578125 489" width="2478.7734375" height="1467">
  <!-- svg-source:excalidraw -->
  
  <defs>
    <style class="style-fonts">
      @font-face {
        font-family: "Virgil";
        src: url("https://excalidraw.com/Virgil.woff2");
      }
      @font-face {
        font-family: "Cascadia";
        src: url("https://excalidraw.com/Cascadia.woff2");
      }
      @font-face {
        font-family: "Assistant";
        src: url("https://excalidraw.com/Assistant-Regular.woff2");
      }
    </style>
    
  </defs>
  <rect x="0" y="0" width="826.2578125" height="489" fill="#ffffff"></rect><g stroke-linecap="round" transform="translate(193.046875 10) rotate(0 239.984375 22)"><path d="M0 0 C168.5 1.9, 335.62 0.71, 479.97 0 M0 0 C170.48 1.11, 340.96 1.28, 479.97 0 M479.97 0 C481.91 13.68, 479.52 28.63, 479.97 44 M479.97 0 C481.04 12.88, 479.85 23.64, 479.97 44 M479.97 44 C307.18 41.68, 135.92 42.5, 0 44 M479.97 44 C374.9 44.01, 269.95 43.45, 0 44 M0 44 C-1.54 28.01, -0.41 13.68, 0 0 M0 44 C-1.15 28.51, -1.13 13.92, 0 0" stroke="#8cd000" stroke-width="2" fill="none"></path></g><g stroke-linecap="round" transform="translate(482.8046875 119) rotate(0 166.7265625 30)"><path d="M0 0 C75.39 -2.25, 151.51 -1.62, 333.45 0 M0 0 C85.53 -0.56, 172.12 -1.12, 333.45 0 M333.45 0 C333.54 21.26, 333.6 48, 333.45 60 M333.45 0 C333.29 12.16, 334.43 25.86, 333.45 60 M333.45 60 C258.28 57.85, 180.23 59.2, 0 60 M333.45 60 C236.74 60.56, 140.08 61.52, 0 60 M0 60 C0.24 45.82, 1.08 31.81, 0 0 M0 60 C-0.33 41.55, -0.12 24.57, 0 0" stroke="#8cd000" stroke-width="2" fill="none"></path></g><g stroke-linecap="round" transform="translate(541.546875 234) rotate(0 124.484375 22)"><path d="M0 0 C86.05 1.14, 169.59 1.5, 248.97 0 M0 0 C88.03 -1.78, 176 -1.07, 248.97 0 M248.97 0 C248.44 11.84, 247.21 21.01, 248.97 44 M248.97 0 C249.32 15.64, 248.01 31.22, 248.97 44 M248.97 44 C196.5 45.6, 146.54 43.95, 0 44 M248.97 44 C162.51 42.86, 74.78 41.84, 0 44 M0 44 C0.72 33.3, -0.03 18.32, 0 0 M0 44 C-0.26 34.4, 0.4 24.28, 0 0" stroke="#8cd000" stroke-width="2" fill="none"></path></g><g stroke-linecap="round" transform="translate(464.7890625 333) rotate(0 117.2421875 22)"><path d="M0 0 C47.17 0.52, 96.65 0.05, 234.48 0 M0 0 C92.37 0.64, 182.7 -0.37, 234.48 0 M234.48 0 C232.74 10.62, 235.61 17.59, 234.48 44 M234.48 0 C234.03 8.72, 233.8 19.21, 234.48 44 M234.48 44 C164.14 45.92, 94.95 46.32, 0 44 M234.48 44 C182.49 44.66, 131.18 45.14, 0 44 M0 44 C-0.21 27.86, -1.69 13.47, 0 0 M0 44 C0.3 33.46, -0.55 23.77, 0 0" stroke="#8cd000" stroke-width="2" fill="none"></path></g><g stroke-linecap="round" transform="translate(269.7578125 435) rotate(0 117.2734375 22)"><path d="M0 0 C59.55 -0.39, 118.88 1.31, 234.55 0 M0 0 C71.68 -2.09, 143.9 -2.06, 234.55 0 M234.55 0 C235.41 16.44, 232.4 36.25, 234.55 44 M234.55 0 C233.28 12.76, 234.22 23.39, 234.55 44 M234.55 44 C141.86 44.33, 46.17 44.82, 0 44 M234.55 44 C149.73 42.68, 65.61 43.03, 0 44 M0 44 C-1.53 26.29, -1.25 10.72, 0 0 M0 44 C-0.84 30.49, 0.89 16.17, 0 0" stroke="#8cd000" stroke-width="2" fill="none"></path></g><g stroke-linecap="round" transform="translate(108.46875 358) rotate(0 92.5625 22)"><path d="M0 0 C52.28 1.93, 101.08 2.7, 185.13 0 M0 0 C72.33 0.24, 147.41 -0.37, 185.13 0 M185.13 0 C183.61 17.2, 184.89 30.59, 185.13 44 M185.13 0 C184.7 9.93, 185.7 21.39, 185.13 44 M185.13 44 C128.36 45.42, 76.02 43.32, 0 44 M185.13 44 C141.69 44.21, 98.34 43.84, 0 44 M0 44 C-0.92 33.33, 0.76 25.25, 0 0 M0 44 C1.27 31.7, -0.01 19.47, 0 0" stroke="#8cd000" stroke-width="2" fill="none"></path></g><g stroke-linecap="round" transform="translate(11.7578125 274) rotate(0 112.2734375 22)"><path d="M0 0 C55.09 0.56, 111.53 -2.18, 224.55 0 M0 0 C62.72 -0.3, 124.3 0.93, 224.55 0 M224.55 0 C223.66 9.35, 223.04 19.68, 224.55 44 M224.55 0 C225.53 15.99, 224.52 32.66, 224.55 44 M224.55 44 C153.31 44.04, 78.88 44.5, 0 44 M224.55 44 C159.33 44.64, 92.27 44.01, 0 44 M0 44 C0.7 34.59, 0.06 23.43, 0 0 M0 44 C-0.77 28.98, -0.09 13.14, 0 0" stroke="#8cd000" stroke-width="2" fill="none"></path></g><g stroke-linecap="round" transform="translate(10 173) rotate(0 82.03125 22)"><path d="M0 0 C58.56 -2.89, 112.81 -3.12, 164.06 0 M0 0 C46.38 1.96, 90.94 0.46, 164.06 0 M164.06 0 C162.84 13.9, 165.26 31.58, 164.06 44 M164.06 0 C164.48 10.12, 164.72 18.46, 164.06 44 M164.06 44 C105.23 42.55, 48.8 43.66, 0 44 M164.06 44 C108.3 43.18, 53.42 43.32, 0 44 M0 44 C-0.31 31.93, 1.14 25, 0 0 M0 44 C0.47 29.92, 0.86 14.53, 0 0" stroke="#8cd000" stroke-width="2" fill="none"></path></g><g stroke-linecap="round" transform="translate(12.78125 89) rotate(0 125.25 22)"><path d="M0 0 C95.69 0.12, 191.83 3.16, 250.5 0 M0 0 C54.06 -1.98, 109.49 -1.45, 250.5 0 M250.5 0 C251.57 10.02, 248.63 22.05, 250.5 44 M250.5 0 C250.71 11.98, 251 26.17, 250.5 44 M250.5 44 C188.88 43.88, 128.06 44.47, 0 44 M250.5 44 C175.4 41.91, 101.17 42.6, 0 44 M0 44 C1.28 32.5, 0.89 16.66, 0 0 M0 44 C0.56 27.48, -0.51 10.37, 0 0" stroke="#8cd000" stroke-width="2" fill="none"></path></g><g stroke-linecap="round"><g transform="translate(475.5969672466995 55.000000000000114) rotate(0 58.286607618639835 31.499999999999943)"><path d="M-1.05 -0.25 C18.73 10.13, 98.02 51.35, 117.76 62.01 M0.6 -1.43 C20.4 9.09, 98.03 52.49, 117.43 63.03" stroke="#8cd000" stroke-width="2" fill="none"></path></g><g transform="translate(475.5969672466995 55.000000000000114) rotate(0 58.286607618639835 31.499999999999943)"><path d="M115.66 62.7 L104.17 62.8 L108.47 50.49 L117.89 61.41" stroke="none" stroke-width="0" fill="#8cd000" fill-rule="evenodd"></path><path d="M117.43 63.03 C113.76 64.15, 109.48 63.4, 102.46 62.01 M117.43 63.03 C112.47 62.34, 106.09 61.74, 102.46 62.01 M102.46 62.01 C102.62 60.98, 104.79 57.43, 108.59 50.91 M102.46 62.01 C104.9 58.57, 106.37 53.91, 108.59 50.91 M108.59 50.91 C111.51 55.14, 113.35 56.19, 117.43 63.03 M108.59 50.91 C109.98 53.83, 112.44 56.29, 117.43 63.03 M117.43 63.03 C117.43 63.03, 117.43 63.03, 117.43 63.03 M117.43 63.03 C117.43 63.03, 117.43 63.03, 117.43 63.03" stroke="#8cd000" stroke-width="2" fill="none"></path></g></g><mask></mask><g stroke-linecap="round"><g transform="translate(654.2907814411092 180.0000000000001) rotate(0 4.093872724927735 26.499999999999943)"><path d="M1.18 -0.99 C2.85 8.01, 7.9 44.91, 8.96 53.73 M0.34 1.11 C2.01 9.79, 7.4 43.4, 8.41 52" stroke="#8cd000" stroke-width="2" fill="none"></path></g><g transform="translate(654.2907814411092 180.0000000000001) rotate(0 4.093872724927735 26.499999999999943)"><path d="M10.11 52.78 L0.1 39.02 L13.23 36.03 L8.63 50.15" stroke="none" stroke-width="0" fill="#8cd000" fill-rule="evenodd"></path><path d="M8.41 52 C5.46 50.37, 5.87 45.92, 0.22 39.43 M8.41 52 C6.07 48.91, 4.17 47.17, 0.22 39.43 M0.22 39.43 C3.87 38.75, 8.37 38.52, 12.77 37.64 M0.22 39.43 C2.62 38.56, 5.55 38.52, 12.77 37.64 M12.77 37.64 C11.35 41.08, 8.81 45.8, 8.41 52 M12.77 37.64 C11.66 40.97, 9.99 44.92, 8.41 52 M8.41 52 C8.41 52, 8.41 52, 8.41 52 M8.41 52 C8.41 52, 8.41 52, 8.41 52" stroke="#8cd000" stroke-width="2" fill="none"></path></g></g><mask></mask><g stroke-linecap="round"><g transform="translate(646.4785382616781 279) rotate(0 -22.471575005000318 26.5)"><path d="M0.77 0.73 C-7.03 9.55, -38.1 43.27, -45.6 51.93 M-0.29 0.07 C-7.79 9.09, -35.85 43.94, -43.24 52.91" stroke="#8cd000" stroke-width="2" fill="none"></path></g><g transform="translate(646.4785382616781 279) rotate(0 -22.471575005000318 26.5)"><path d="M-43.35 52.49 L-39.11 36.75 L-29.52 44.52 L-41.66 54.9" stroke="none" stroke-width="0" fill="#8cd000" fill-rule="evenodd"></path><path d="M-43.24 52.91 C-40.74 46.26, -41.53 42.17, -39.57 38.36 M-43.24 52.91 C-42.83 49.42, -41.12 44.32, -39.57 38.36 M-39.57 38.36 C-35.04 41.83, -32.75 45.39, -29.74 46.36 M-39.57 38.36 C-36.25 41.26, -32.35 44.41, -29.74 46.36 M-29.74 46.36 C-35.81 47.35, -40.51 50.05, -43.24 52.91 M-29.74 46.36 C-34.69 48.91, -37.73 50.86, -43.24 52.91 M-43.24 52.91 C-43.24 52.91, -43.24 52.91, -43.24 52.91 M-43.24 52.91 C-43.24 52.91, -43.24 52.91, -43.24 52.91" stroke="#8cd000" stroke-width="2" fill="none"></path></g></g><mask></mask><g stroke-linecap="round"><g transform="translate(537.9139407401017 378) rotate(0 -53.47719875545425 28)"><path d="M-0.66 -1.07 C-18.49 8.09, -88.39 46.3, -106.25 55.7 M1.2 0.98 C-16.8 10.26, -89.06 47.86, -106.82 57.08" stroke="#8cd000" stroke-width="2" fill="none"></path></g><g transform="translate(537.9139407401017 378) rotate(0 -53.47719875545425 28)"><path d="M-106.37 55.47 L-97.46 43.34 L-90.27 58.43 L-105.8 55.74" stroke="none" stroke-width="0" fill="#8cd000" fill-rule="evenodd"></path><path d="M-106.82 57.08 C-104.91 53.69, -100.62 47.39, -97.68 45.19 M-106.82 57.08 C-104.48 53.51, -101.51 51.14, -97.68 45.19 M-97.68 45.19 C-96.9 49.17, -93.38 51.19, -91.84 56.44 M-97.68 45.19 C-96.16 48.07, -94.55 50.48, -91.84 56.44 M-91.84 56.44 C-95.99 55.49, -97.93 56.62, -106.82 57.08 M-91.84 56.44 C-95.5 57.03, -100.79 57.58, -106.82 57.08 M-106.82 57.08 C-106.82 57.08, -106.82 57.08, -106.82 57.08 M-106.82 57.08 C-106.82 57.08, -106.82 57.08, -106.82 57.08" stroke="#8cd000" stroke-width="2" fill="none"></path></g></g><mask></mask><g stroke-linecap="round"><g transform="translate(331.3968532197264 434) rotate(0 -37.41995411527023 -15.5)"><path d="M0.71 -0.3 C-11.8 -5.4, -62.92 -26.68, -75.7 -31.67 M-0.38 -1.5 C-12.45 -6.36, -61.23 -25.38, -73.44 -30.48" stroke="#8cd000" stroke-width="2" fill="none"></path></g><g transform="translate(331.3968532197264 434) rotate(0 -37.41995411527023 -15.5)"><path d="M-73.22 -32.33 L-56.89 -29.3 L-62.17 -20.87 L-71.74 -32.46" stroke="none" stroke-width="0" fill="#8cd000" fill-rule="evenodd"></path><path d="M-73.44 -30.48 C-70.14 -31.85, -66.93 -32.39, -58.47 -31.3 M-73.44 -30.48 C-67.23 -30.73, -62.51 -30.59, -58.47 -31.3 M-58.47 -31.3 C-59.31 -28.18, -62.41 -24.05, -63.19 -19.53 M-58.47 -31.3 C-59.41 -27.85, -61.75 -24.88, -63.19 -19.53 M-63.19 -19.53 C-65.01 -21.92, -67.69 -25.55, -73.44 -30.48 M-63.19 -19.53 C-67.28 -22.78, -70.48 -26.68, -73.44 -30.48 M-73.44 -30.48 C-73.44 -30.48, -73.44 -30.48, -73.44 -30.48 M-73.44 -30.48 C-73.44 -30.48, -73.44 -30.48, -73.44 -30.48" stroke="#8cd000" stroke-width="2" fill="none"></path></g></g><mask></mask><g stroke-linecap="round"><g transform="translate(184.7991987196454 357) rotate(0 -17.46219044235508 -19)"><path d="M-0.86 -0.67 C-6.99 -6.82, -30.38 -30.83, -36.06 -37.21 M0.89 1.59 C-4.95 -4.87, -27.85 -32.3, -33.94 -38.92" stroke="#8cd000" stroke-width="2" fill="none"></path></g><g transform="translate(184.7991987196454 357) rotate(0 -17.46219044235508 -19)"><path d="M-32.37 -36.92 L-19.21 -34.18 L-28.09 -26.48 L-32.11 -40.29" stroke="none" stroke-width="0" fill="#8cd000" fill-rule="evenodd"></path><path d="M-33.94 -38.92 C-29.87 -38.06, -23.13 -34.47, -20.23 -32.84 M-33.94 -38.92 C-30.9 -37.21, -27.72 -36.85, -20.23 -32.84 M-20.23 -32.84 C-24.35 -30.32, -26.98 -26.7, -29.79 -24.51 M-20.23 -32.84 C-23.93 -30.54, -27.12 -27.67, -29.79 -24.51 M-29.79 -24.51 C-30.97 -29.16, -30.86 -29.97, -33.94 -38.92 M-29.79 -24.51 C-30.93 -28.67, -32.06 -33.86, -33.94 -38.92 M-33.94 -38.92 C-33.94 -38.92, -33.94 -38.92, -33.94 -38.92 M-33.94 -38.92 C-33.94 -38.92, -33.94 -38.92, -33.94 -38.92" stroke="#8cd000" stroke-width="2" fill="none"></path></g></g><mask></mask><g stroke-linecap="round"><g transform="translate(116.72907359826928 273) rotate(0 -8.707733357817759 -27.5)"><path d="M-1.14 0.79 C-3.9 -8.43, -14.91 -46.66, -17.42 -55.97 M0.47 0.15 C-2.37 -8.88, -15.57 -45.95, -18.38 -54.95" stroke="#8cd000" stroke-width="2" fill="none"></path></g><g transform="translate(116.72907359826928 273) rotate(0 -8.707733357817759 -27.5)"><path d="M-17.35 -56.29 L-6.32 -46.06 L-18.21 -41.41 L-19.11 -55.82" stroke="none" stroke-width="0" fill="#8cd000" fill-rule="evenodd"></path><path d="M-18.38 -54.95 C-15.09 -52.38, -14.93 -48.41, -8.03 -44.09 M-18.38 -54.95 C-15.21 -52.44, -11.99 -48.23, -8.03 -44.09 M-8.03 -44.09 C-11.09 -42.78, -13.52 -41.32, -20.04 -40.04 M-8.03 -44.09 C-12.17 -43.38, -15.6 -41.64, -20.04 -40.04 M-20.04 -40.04 C-18.6 -43.18, -18.39 -49.6, -18.38 -54.95 M-20.04 -40.04 C-18.92 -45.39, -19.07 -51.17, -18.38 -54.95 M-18.38 -54.95 C-18.38 -54.95, -18.38 -54.95, -18.38 -54.95 M-18.38 -54.95 C-18.38 -54.95, -18.38 -54.95, -18.38 -54.95" stroke="#8cd000" stroke-width="2" fill="none"></path></g></g><mask></mask><g stroke-linecap="round"><g transform="translate(104.70137528909908 172) rotate(0 10.381287036779398 -18.999999999999943)"><path d="M-0.01 -0.97 C3.84 -7.46, 18.49 -32.04, 21.95 -38.11 M-1.47 1.13 C2.42 -5.23, 18.05 -29.87, 21.62 -36.64" stroke="#8cd000" stroke-width="2" fill="none"></path></g><g transform="translate(104.70137528909908 172) rotate(0 10.381287036779398 -18.999999999999943)"><path d="M23.32 -38.61 L22.05 -23.07 L8.54 -28.99 L21.56 -34.8" stroke="none" stroke-width="0" fill="#8cd000" fill-rule="evenodd"></path><path d="M21.62 -36.64 C20.21 -32.09, 21 -30.53, 20.21 -21.7 M21.62 -36.64 C21.54 -30.98, 20.26 -26.71, 20.21 -21.7 M20.21 -21.7 C17.68 -22.61, 14.23 -26.26, 9.28 -28.12 M20.21 -21.7 C17.43 -23.07, 15.41 -24.7, 9.28 -28.12 M9.28 -28.12 C12.53 -30.64, 15.92 -31.47, 21.62 -36.64 M9.28 -28.12 C13.84 -31.06, 18.43 -34.58, 21.62 -36.64 M21.62 -36.64 C21.62 -36.64, 21.62 -36.64, 21.62 -36.64 M21.62 -36.64 C21.62 -36.64, 21.62 -36.64, 21.62 -36.64" stroke="#8cd000" stroke-width="2" fill="none"></path></g></g><mask></mask><g transform="translate(240.1312713623047 19.5) rotate(0 192.8999786376953 12.5)"><text x="192.8999786376953" y="0" font-family="Virgil, Segoe UI Emoji" font-size="20px" fill="#8cd000" text-anchor="middle" style="white-space: pre;" direction="ltr" dominant-baseline="text-before-edge">Forschungsthema und Forschungsproblem</text></g><g transform="translate(527.021240234375 124) rotate(0 122.510009765625 25)"><text x="122.510009765625" y="0" font-family="Virgil, Segoe UI Emoji" font-size="20px" fill="#8cd000" text-anchor="middle" style="white-space: pre;" direction="ltr" dominant-baseline="text-before-edge">Forschungsstand und </text><text x="122.510009765625" y="25" font-family="Virgil, Segoe UI Emoji" font-size="20px" fill="#8cd000" text-anchor="middle" style="white-space: pre;" direction="ltr" dominant-baseline="text-before-edge">theoretischer Hintergrund</text></g><g transform="translate(568.4812393188477 243.5) rotate(0 97.55001068115234 12.5)"><text x="97.55001068115234" y="0" font-family="Virgil, Segoe UI Emoji" font-size="20px" fill="#8cd000" text-anchor="middle" style="white-space: pre;" direction="ltr" dominant-baseline="text-before-edge">Untersuchungsdesign</text></g><g transform="translate(491.11124420166016 342.5) rotate(0 90.92000579833984 12.5)"><text x="90.92000579833984" y="0" font-family="Virgil, Segoe UI Emoji" font-size="20px" fill="#8cd000" text-anchor="middle" style="white-space: pre;" direction="ltr" dominant-baseline="text-before-edge">Operationalisierung</text></g><g transform="translate(299.4812469482422 444.5) rotate(0 87.55000305175781 12.5)"><text x="87.55000305175781" y="0" font-family="Virgil, Segoe UI Emoji" font-size="20px" fill="#8cd000" text-anchor="middle" style="white-space: pre;" direction="ltr" dominant-baseline="text-before-edge">Stichprobenziehung</text></g><g transform="translate(130.15125274658203 367.5) rotate(0 70.87999725341797 12.5)"><text x="70.87999725341797" y="0" font-family="Virgil, Segoe UI Emoji" font-size="20px" fill="#8cd000" text-anchor="middle" style="white-space: pre;" direction="ltr" dominant-baseline="text-before-edge">Datenerhebung</text></g><g transform="translate(33.04124450683594 283.5) rotate(0 90.99000549316406 12.5)"><text x="90.99000549316406" y="0" font-family="Virgil, Segoe UI Emoji" font-size="20px" fill="#8cd000" text-anchor="middle" style="white-space: pre;" direction="ltr" dominant-baseline="text-before-edge">Datenaufbereitung</text></g><g transform="translate(25.54125213623047 182.5) rotate(0 66.48999786376953 12.5)"><text x="66.48999786376953" y="0" font-family="Virgil, Segoe UI Emoji" font-size="20px" fill="#8cd000" text-anchor="middle" style="white-space: pre;" direction="ltr" dominant-baseline="text-before-edge">Datenanalyse</text></g><g transform="translate(37.301246643066406 98.5) rotate(0 100.7300033569336 12.5)"><text x="100.7300033569336" y="0" font-family="Virgil, Segoe UI Emoji" font-size="20px" fill="#8cd000" text-anchor="middle" style="white-space: pre;" direction="ltr" dominant-baseline="text-before-edge">Ergebnispräsentation</text></g><g stroke-linecap="round"><g transform="translate(179.4555464837059 84.5) rotate(0 58.160796605312086 -14)"><path d="M1.18 -0.11 C20.57 -4.52, 97.06 -22.6, 116.3 -27.41 M0.35 -1.22 C19.57 -5.9, 96.07 -24.74, 115.34 -29.23" stroke="#8cd000" stroke-width="2" fill="none"></path></g><g transform="translate(179.4555464837059 84.5) rotate(0 58.160796605312086 -14)"><path d="M117.17 -30.6 L102.87 -20.76 L100.58 -30.38 L113.76 -29.03" stroke="none" stroke-width="0" fill="#8cd000" fill-rule="evenodd"></path><path d="M115.34 -29.23 C111.61 -26.35, 108.97 -23.19, 103.6 -19.88 M115.34 -29.23 C112.4 -27.58, 110.02 -25.1, 103.6 -19.88 M103.6 -19.88 C102.55 -25, 100.64 -29.02, 100.64 -32.21 M103.6 -19.88 C102.99 -22.87, 101.75 -25.33, 100.64 -32.21 M100.64 -32.21 C107.73 -30.54, 113.58 -28.79, 115.34 -29.23 M100.64 -32.21 C105.37 -30.83, 110.65 -30.27, 115.34 -29.23 M115.34 -29.23 C115.34 -29.23, 115.34 -29.23, 115.34 -29.23 M115.34 -29.23 C115.34 -29.23, 115.34 -29.23, 115.34 -29.23" stroke="#8cd000" stroke-width="2" fill="none"></path></g></g><mask></mask></svg>